<svg width="24" height="24" viewBox="0 0 24 24" fill="none" xmlns="http://www.w3.org/2000/svg">
<g clip-path="url(#clip0_17914_35)">
<g clip-path="url(#paint0_diamond_17914_35_clip_path)" data-figma-skip-parse="true"><g transform="matrix(0.0417641 -0.1785 0.0785315 0.296475 1.1537 71.1)"><rect x="0" y="0" width="468.035" height="120.28" fill="url(#paint0_diamond_17914_35)" opacity="1" shape-rendering="crispEdges"/><rect x="0" y="0" width="468.035" height="120.28" transform="scale(1 -1)" fill="url(#paint0_diamond_17914_35)" opacity="1" shape-rendering="crispEdges"/><rect x="0" y="0" width="468.035" height="120.28" transform="scale(-1 1)" fill="url(#paint0_diamond_17914_35)" opacity="1" shape-rendering="crispEdges"/><rect x="0" y="0" width="468.035" height="120.28" transform="scale(-1)" fill="url(#paint0_diamond_17914_35)" opacity="1" shape-rendering="crispEdges"/></g></g><path d="M18.3496 12.7061C21.4634 12.7061 23.9971 15.2393 23.9971 18.3535C23.9969 21.4672 21.4638 24 18.3496 24C15.2365 23.9999 12.7033 21.4671 12.7031 18.3535C12.7031 15.2398 15.2359 12.7062 18.3496 12.7061ZM23.4746 3.07324L3.07715 23.4717L0.53125 20.9258L20.9297 0.527344L23.4746 3.07324ZM18.3496 16.3066C17.2213 16.3068 16.3029 17.2248 16.3027 18.3535C16.3027 19.4819 17.2212 20.4003 18.3496 20.4004C19.4786 20.4004 20.3975 19.482 20.3975 18.3535C20.3973 17.2246 19.4785 16.3066 18.3496 16.3066ZM5.64648 0C8.75965 0 11.2928 2.53279 11.293 5.64648C11.293 8.75973 8.75978 11.293 5.64648 11.293C2.53284 11.2928 0 8.76016 0 5.64648C0.000118563 2.53291 2.53291 0.000143964 5.64648 0ZM5.64648 3.59961C4.51816 3.59975 3.59968 4.5182 3.59961 5.64648C3.59961 6.77533 4.51814 7.69322 5.64648 7.69336C6.77495 7.69336 7.69336 6.77495 7.69336 5.64648C7.69324 4.51812 6.77488 3.59961 5.64648 3.59961Z" data-figma-gradient-fill="{&#34;type&#34;:&#34;GRADIENT_DIAMOND&#34;,&#34;stops&#34;:[{&#34;color&#34;:{&#34;r&#34;:0.47450980544090271,&#34;g&#34;:0.078431375324726105,&#34;b&#34;:0.82352942228317261,&#34;a&#34;:1.0},&#34;position&#34;:0.0},{&#34;color&#34;:{&#34;r&#34;:0.70588237047195435,&#34;g&#34;:0.35686275362968445,&#34;b&#34;:0.95294117927551270,&#34;a&#34;:1.0},&#34;position&#34;:0.052190192043781281},{&#34;color&#34;:{&#34;r&#34;:0.26666668057441711,&#34;g&#34;:0.086274512112140656,&#34;b&#34;:0.63921570777893066,&#34;a&#34;:1.0},&#34;position&#34;:0.10999999940395355},{&#34;color&#34;:{&#34;r&#34;:0.34509804844856262,&#34;g&#34;:0.074509806931018829,&#34;b&#34;:0.78431373834609985,&#34;a&#34;:1.0},&#34;position&#34;:0.14745014905929565},{&#34;color&#34;:{&#34;r&#34;:0.50196081399917603,&#34;g&#34;:0.18823529779911041,&#34;b&#34;:0.83529412746429443,&#34;a&#34;:1.0},&#34;position&#34;:0.19393931329250336},{&#34;color&#34;:{&#34;r&#34;:0.45490196347236633,&#34;g&#34;:0.34509804844856262,&#34;b&#34;:0.92156863212585449,&#34;a&#34;:1.0},&#34;position&#34;:0.28499999642372131},{&#34;color&#34;:{&#34;r&#34;:0.69411766529083252,&#34;g&#34;:0.40392157435417175,&#34;b&#34;:0.97647058963775635,&#34;a&#34;:1.0},&#34;position&#34;:0.46000000834465027},{&#34;color&#34;:{&#34;r&#34;:0.53609949350357056,&#34;g&#34;:0.40611627697944641,&#34;b&#34;:0.94135546684265137,&#34;a&#34;:1.0},&#34;position&#34;:0.56000000238418579},{&#34;color&#34;:{&#34;r&#34;:0.41176471114158630,&#34;g&#34;:0.40784314274787903,&#34;b&#34;:0.91372549533843994,&#34;a&#34;:1.0},&#34;position&#34;:0.63499999046325684},{&#34;color&#34;:{&#34;r&#34;:0.50196081399917603,&#34;g&#34;:0.078431375324726105,&#34;b&#34;:0.82352942228317261,&#34;a&#34;:1.0},&#34;position&#34;:0.68500000238418579},{&#34;color&#34;:{&#34;r&#34;:0.76078432798385620,&#34;g&#34;:0.35686275362968445,&#34;b&#34;:0.97647058963775635,&#34;a&#34;:1.0},&#34;position&#34;:0.78500002622604370},{&#34;color&#34;:{&#34;r&#34;:0.43137255311012268,&#34;g&#34;:0.46666666865348816,&#34;b&#34;:0.92156863212585449,&#34;a&#34;:1.0},&#34;position&#34;:0.85000002384185791},{&#34;color&#34;:{&#34;r&#34;:0.46463149785995483,&#34;g&#34;:0.16875000298023224,&#34;b&#34;:0.89999997615814209,&#34;a&#34;:1.0},&#34;position&#34;:0.93000000715255737},{&#34;color&#34;:{&#34;r&#34;:0.32156863808631897,&#34;g&#34;:0.054901961237192154,&#34;b&#34;:0.72156864404678345,&#34;a&#34;:1.0},&#34;position&#34;:1.0}],&#34;stopsVar&#34;:[{&#34;color&#34;:{&#34;r&#34;:0.47450980544090271,&#34;g&#34;:0.078431375324726105,&#34;b&#34;:0.82352942228317261,&#34;a&#34;:1.0},&#34;position&#34;:0.0},{&#34;color&#34;:{&#34;r&#34;:0.70588237047195435,&#34;g&#34;:0.35686275362968445,&#34;b&#34;:0.95294117927551270,&#34;a&#34;:1.0},&#34;position&#34;:0.052190192043781281},{&#34;color&#34;:{&#34;r&#34;:0.26666668057441711,&#34;g&#34;:0.086274512112140656,&#34;b&#34;:0.63921570777893066,&#34;a&#34;:1.0},&#34;position&#34;:0.10999999940395355},{&#34;color&#34;:{&#34;r&#34;:0.34509804844856262,&#34;g&#34;:0.074509806931018829,&#34;b&#34;:0.78431373834609985,&#34;a&#34;:1.0},&#34;position&#34;:0.14745014905929565},{&#34;color&#34;:{&#34;r&#34;:0.50196081399917603,&#34;g&#34;:0.18823529779911041,&#34;b&#34;:0.83529412746429443,&#34;a&#34;:1.0},&#34;position&#34;:0.19393931329250336},{&#34;color&#34;:{&#34;r&#34;:0.45490196347236633,&#34;g&#34;:0.34509804844856262,&#34;b&#34;:0.92156863212585449,&#34;a&#34;:1.0},&#34;position&#34;:0.28499999642372131},{&#34;color&#34;:{&#34;r&#34;:0.69411766529083252,&#34;g&#34;:0.40392157435417175,&#34;b&#34;:0.97647058963775635,&#34;a&#34;:1.0},&#34;position&#34;:0.46000000834465027},{&#34;color&#34;:{&#34;r&#34;:0.53609949350357056,&#34;g&#34;:0.40611627697944641,&#34;b&#34;:0.94135546684265137,&#34;a&#34;:1.0},&#34;position&#34;:0.56000000238418579},{&#34;color&#34;:{&#34;r&#34;:0.41176471114158630,&#34;g&#34;:0.40784314274787903,&#34;b&#34;:0.91372549533843994,&#34;a&#34;:1.0},&#34;position&#34;:0.63499999046325684},{&#34;color&#34;:{&#34;r&#34;:0.50196081399917603,&#34;g&#34;:0.078431375324726105,&#34;b&#34;:0.82352942228317261,&#34;a&#34;:1.0},&#34;position&#34;:0.68500000238418579},{&#34;color&#34;:{&#34;r&#34;:0.76078432798385620,&#34;g&#34;:0.35686275362968445,&#34;b&#34;:0.97647058963775635,&#34;a&#34;:1.0},&#34;position&#34;:0.78500002622604370},{&#34;color&#34;:{&#34;r&#34;:0.43137255311012268,&#34;g&#34;:0.46666666865348816,&#34;b&#34;:0.92156863212585449,&#34;a&#34;:1.0},&#34;position&#34;:0.85000002384185791},{&#34;color&#34;:{&#34;r&#34;:0.46463149785995483,&#34;g&#34;:0.16875000298023224,&#34;b&#34;:0.89999997615814209,&#34;a&#34;:1.0},&#34;position&#34;:0.93000000715255737},{&#34;color&#34;:{&#34;r&#34;:0.32156863808631897,&#34;g&#34;:0.054901961237192154,&#34;b&#34;:0.72156864404678345,&#34;a&#34;:1.0},&#34;position&#34;:1.0}],&#34;transform&#34;:{&#34;m00&#34;:83.528266906738281,&#34;m01&#34;:157.06292724609375,&#34;m02&#34;:-119.14189147949219,&#34;m10&#34;:-357.0,&#34;m11&#34;:592.94958496093750,&#34;m12&#34;:-46.874763488769531},&#34;opacity&#34;:1.0,&#34;blendMode&#34;:&#34;NORMAL&#34;,&#34;visible&#34;:true}"/>
</g>
<defs>
<clipPath id="paint0_diamond_17914_35_clip_path"><path d="M18.3496 12.7061C21.4634 12.7061 23.9971 15.2393 23.9971 18.3535C23.9969 21.4672 21.4638 24 18.3496 24C15.2365 23.9999 12.7033 21.4671 12.7031 18.3535C12.7031 15.2398 15.2359 12.7062 18.3496 12.7061ZM23.4746 3.07324L3.07715 23.4717L0.53125 20.9258L20.9297 0.527344L23.4746 3.07324ZM18.3496 16.3066C17.2213 16.3068 16.3029 17.2248 16.3027 18.3535C16.3027 19.4819 17.2212 20.4003 18.3496 20.4004C19.4786 20.4004 20.3975 19.482 20.3975 18.3535C20.3973 17.2246 19.4785 16.3066 18.3496 16.3066ZM5.64648 0C8.75965 0 11.2928 2.53279 11.293 5.64648C11.293 8.75973 8.75978 11.293 5.64648 11.293C2.53284 11.2928 0 8.76016 0 5.64648C0.000118563 2.53291 2.53291 0.000143964 5.64648 0ZM5.64648 3.59961C4.51816 3.59975 3.59968 4.5182 3.59961 5.64648C3.59961 6.77533 4.51814 7.69322 5.64648 7.69336C6.77495 7.69336 7.69336 6.77495 7.69336 5.64648C7.69324 4.51812 6.77488 3.59961 5.64648 3.59961Z"/></clipPath><linearGradient id="paint0_diamond_17914_35" x1="0" y1="0" x2="500" y2="500" gradientUnits="userSpaceOnUse">
<stop stop-color="#7914D2"/>
<stop offset="0.0521902" stop-color="#B45BF3"/>
<stop offset="0.11" stop-color="#4416A3"/>
<stop offset="0.14745" stop-color="#5813C8"/>
<stop offset="0.193939" stop-color="#8030D5"/>
<stop offset="0.285" stop-color="#7458EB"/>
<stop offset="0.46" stop-color="#B167F9"/>
<stop offset="0.56" stop-color="#8968F0"/>
<stop offset="0.635" stop-color="#6968E9"/>
<stop offset="0.685" stop-color="#8014D2"/>
<stop offset="0.785" stop-color="#C25BF9"/>
<stop offset="0.85" stop-color="#6E77EB"/>
<stop offset="0.93" stop-color="#762BE6"/>
<stop offset="1" stop-color="#520EB8"/>
</linearGradient>
<clipPath id="clip0_17914_35">
<rect width="24" height="24" fill="white"/>
</clipPath>
</defs>
</svg>
