<svg aria-hidden="true" xmlns="http://www.w3.org/2000/svg" xmlns:xlink="http://www.w3.org/1999/xlink"><symbol viewBox="0 0 17 18" fill="none" id="arrow-left" xmlns="http://www.w3.org/2000/svg">
<path d="M8.79538 1.19253C8.98292 1.38007 9.08828 1.63442 9.08828 1.89964C9.08828 2.16485 8.98292 2.41921 8.79538 2.60674L3.42844 7.97368L15.1593 7.96661C15.4256 7.96661 15.681 8.0724 15.8693 8.2607C16.0576 8.44901 16.1634 8.7044 16.1634 8.9707C16.1634 9.237 16.0576 9.4924 15.8693 9.6807C15.681 9.86901 15.4256 9.97479 15.1593 9.97479L3.42844 9.96772L8.79538 15.3347C8.98292 15.5222 9.08828 15.7766 9.08828 16.0418C9.08828 16.307 8.98292 16.5613 8.79538 16.7489C8.60785 16.9364 8.35349 17.0418 8.08828 17.0418C7.82306 17.0418 7.56871 16.9364 7.38117 16.7489L0.310104 9.67781C0.218819 9.58429 0.14675 9.47378 0.0979726 9.35254C-0.00305508 9.10801 -0.00305508 8.8334 0.0979726 8.58886C0.14675 8.46762 0.218819 8.35712 0.310104 8.2636L7.38117 1.19253C7.56871 1.00499 7.82306 0.899635 8.08828 0.899635C8.35349 0.899635 8.60785 1.00499 8.79538 1.19253Z" fill="currentColor"/>
</symbol><symbol viewBox="0 0 18 18" fill="none" id="arrow-right" xmlns="http://www.w3.org/2000/svg">
<path d="M8.32229 1.19253C8.13475 1.38007 8.0294 1.63442 8.0294 1.89964C8.0294 2.16485 8.13475 2.41921 8.32229 2.60674L13.6892 7.97368L1.95833 7.96661C1.69203 7.96661 1.43663 8.0724 1.24833 8.2607C1.06003 8.44901 0.954239 8.7044 0.954239 8.9707C0.954239 9.237 1.06003 9.4924 1.24833 9.6807C1.43663 9.86901 1.69203 9.97479 1.95833 9.97479L13.6892 9.96772L8.32229 15.3347C8.13475 15.5222 8.0294 15.7766 8.0294 16.0418C8.0294 16.307 8.13475 16.5613 8.32229 16.7489C8.50983 16.9364 8.76418 17.0418 9.0294 17.0418C9.29461 17.0418 9.54897 16.9364 9.7365 16.7489L16.8076 9.67781C16.8989 9.58429 16.9709 9.47378 17.0197 9.35254C17.1207 9.10801 17.1207 8.8334 17.0197 8.58886C16.9709 8.46762 16.8989 8.35712 16.8076 8.2636L9.7365 1.19253C9.54897 1.00499 9.29461 0.899635 9.0294 0.899635C8.76418 0.899635 8.50983 1.00499 8.32229 1.19253Z" fill="currentColor"/>
</symbol><symbol viewBox="0 0 11 13" fill="none" id="back" xmlns="http://www.w3.org/2000/svg">
<path d="M9.66328 3.39124L5.987 1.14907C5.53727 0.874789 4.97255 0.874789 4.52282 1.14907L0.846541 3.39124C0.426395 3.64752 0.169922 4.10488 0.169922 4.59792V8.40544C0.169922 8.89882 0.426659 9.35646 0.847158 9.61255L4.52344 11.852C4.97282 12.1257 5.53691 12.1257 5.98629 11.852L9.66257 9.61255C10.0831 9.35637 10.3398 8.89873 10.3398 8.40544V4.59792C10.3398 4.10479 10.0833 3.64743 9.66319 3.39124H9.66328Z" fill="currentColor"/>
</symbol><symbol viewBox="0 0 24 24" fill="none" id="chevron-down" xmlns="http://www.w3.org/2000/svg">
<path d="M12.7105 15.5407L18.3605 9.88071C18.4542 9.78775 18.5286 9.67715 18.5793 9.55529C18.6301 9.43343 18.6562 9.30273 18.6562 9.17071C18.6562 9.0387 18.6301 8.908 18.5793 8.78614C18.5286 8.66428 18.4542 8.55368 18.3605 8.46071C18.1731 8.27446 17.9196 8.16992 17.6555 8.16992C17.3913 8.16992 17.1378 8.27446 16.9505 8.46071L11.9505 13.4107L7.00045 8.46071C6.81309 8.27446 6.55964 8.16992 6.29545 8.16992C6.03127 8.16992 5.77781 8.27446 5.59045 8.46071C5.49596 8.55333 5.42079 8.66377 5.3693 8.78565C5.3178 8.90752 5.291 9.03841 5.29045 9.17071C5.291 9.30302 5.3178 9.4339 5.3693 9.55578C5.42079 9.67765 5.49596 9.7881 5.59045 9.88071L11.2405 15.5407C11.3341 15.6422 11.4477 15.7232 11.5742 15.7786C11.7007 15.834 11.8373 15.8626 11.9755 15.8626C12.1136 15.8626 12.2502 15.834 12.3767 15.7786C12.5032 15.7232 12.6168 15.6422 12.7105 15.5407Z" fill="currentColor"/>
</symbol><symbol viewBox="0 0 7 12" fill="none" id="chevron-right" xmlns="http://www.w3.org/2000/svg">
<path d="M6.32994 5.2897L2.08994 1.0497C1.99698 0.955976 1.88638 0.881582 1.76452 0.830813C1.64266 0.780044 1.51195 0.753906 1.37994 0.753906C1.24793 0.753906 1.11723 0.780044 0.995366 0.830813C0.873507 0.881582 0.762906 0.955976 0.669943 1.0497C0.483692 1.23707 0.37915 1.49052 0.37915 1.7547C0.37915 2.01889 0.483692 2.27234 0.669943 2.4597L4.20994 5.9997L0.669943 9.5397C0.483692 9.72707 0.37915 9.98052 0.37915 10.2447C0.37915 10.5089 0.483692 10.7623 0.669943 10.9497C0.763383 11.0424 0.874199 11.1157 0.996037 11.1655C1.11787 11.2152 1.24834 11.2405 1.37994 11.2397C1.51155 11.2405 1.64201 11.2152 1.76385 11.1655C1.88569 11.1157 1.9965 11.0424 2.08994 10.9497L6.32994 6.7097C6.42367 6.61674 6.49806 6.50614 6.54883 6.38428C6.5996 6.26242 6.62574 6.13172 6.62574 5.9997C6.62574 5.86769 6.5996 5.73699 6.54883 5.61513C6.49806 5.49327 6.42367 5.38267 6.32994 5.2897Z" fill="currentColor"/>
</symbol><symbol viewBox="0 0 12 12" fill="none" id="close" xmlns="http://www.w3.org/2000/svg">
<path d="M7.40994 6.00019L11.7099 1.71019C11.8982 1.52188 12.004 1.26649 12.004 1.00019C12.004 0.733884 11.8982 0.478489 11.7099 0.290185C11.5216 0.101882 11.2662 -0.00390625 10.9999 -0.00390625C10.7336 -0.00390625 10.4782 0.101882 10.2899 0.290185L5.99994 4.59019L1.70994 0.290185C1.52164 0.101882 1.26624 -0.00390625 0.999939 -0.00390625C0.733637 -0.00390625 0.478243 0.101882 0.289939 0.290185C0.101635 0.478489 -0.00415277 0.733884 -0.00415277 1.00019C-0.00415278 1.26649 0.101635 1.52188 0.289939 1.71019L4.58994 6.00019L0.289939 10.2902C0.196211 10.3831 0.121816 10.4937 0.0710478 10.6156C0.0202791 10.7375 -0.00585938 10.8682 -0.00585938 11.0002C-0.00585938 11.1322 0.0202791 11.2629 0.0710478 11.3848C0.121816 11.5066 0.196211 11.6172 0.289939 11.7102C0.382902 11.8039 0.493503 11.8783 0.615362 11.9291C0.737221 11.9798 0.867927 12.006 0.999939 12.006C1.13195 12.006 1.26266 11.9798 1.38452 11.9291C1.50638 11.8783 1.61698 11.8039 1.70994 11.7102L5.99994 7.41019L10.2899 11.7102C10.3829 11.8039 10.4935 11.8783 10.6154 11.9291C10.7372 11.9798 10.8679 12.006 10.9999 12.006C11.132 12.006 11.2627 11.9798 11.3845 11.9291C11.5064 11.8783 11.617 11.8039 11.7099 11.7102C11.8037 11.6172 11.8781 11.5066 11.9288 11.3848C11.9796 11.2629 12.0057 11.1322 12.0057 11.0002C12.0057 10.8682 11.9796 10.7375 11.9288 10.6156C11.8781 10.4937 11.8037 10.3831 11.7099 10.2902L7.40994 6.00019Z" fill="currentColor"/>
</symbol><symbol viewBox="0 0 24 24" fill="none" id="linkedin" xmlns="http://www.w3.org/2000/svg">
<path d="M12 0C17.6569 0 20.4849 0.000452518 22.2422 1.75781C23.9996 3.51517 24 6.34317 24 12C24 17.6569 23.9996 20.4849 22.2422 22.2422C20.4849 23.9996 17.6569 24 12 24C6.34317 24 3.51517 23.9996 1.75781 22.2422C0.000452518 20.4849 0 17.6569 0 12C0 6.34315 0.000452518 3.51517 1.75781 1.75781C3.51517 0.000452518 6.34315 0 12 0ZM5.08984 9.74023V18.7402H8.08984V9.74023H5.08984ZM15.46 9.5C14.9146 9.47987 14.374 9.60972 13.8965 9.87402C13.4192 10.1383 13.0225 10.5273 12.75 11V9.73047H9.75V18.7305H12.75V13.5449C12.7581 13.3601 12.791 13.1761 12.8496 13C12.9641 12.6828 13.174 12.4087 13.4492 12.2139C13.7244 12.0191 14.0525 11.9127 14.3896 11.9102C15.4796 11.9102 15.9101 12.7003 15.9102 13.9102V18.7402H18.9102V13.5605C18.9102 10.7905 17.46 9.5 15.46 9.5ZM6.58984 5.36035C6.17626 5.36041 5.7798 5.52497 5.4873 5.81738C5.19484 6.10992 5.03027 6.50723 5.03027 6.9209C5.03047 7.33436 5.19493 7.73106 5.4873 8.02344C5.77978 8.31577 6.17631 8.48041 6.58984 8.48047C6.8095 8.50537 7.0325 8.484 7.24316 8.41699C7.45365 8.35002 7.6477 8.23886 7.8125 8.0918C7.97735 7.94459 8.10985 7.76322 8.2002 7.56152C8.2903 7.36008 8.33681 7.14157 8.33691 6.9209C8.33691 6.70004 8.29035 6.48092 8.2002 6.2793C8.10988 6.07756 7.97735 5.89627 7.8125 5.74902C7.64776 5.60199 7.45356 5.49181 7.24316 5.4248C7.03247 5.35778 6.80954 5.33544 6.58984 5.36035Z" fill="currentColor"/>
</symbol><symbol fill="none" viewBox="0 0 24 24" id="twitter" xmlns="http://www.w3.org/2000/svg">
  <path fill="currentColor" fill-rule="evenodd" d="M1.8 1.8C0 3.5 0 6.3 0 12c0 5.7 0 8.5 1.8 10.2C3.5 24 6.3 24 12 24c5.7 0 8.5 0 10.2-1.8C24 20.5 24 17.7 24 12c0-5.7 0-8.5-1.8-10.2C20.5 0 17.7 0 12 0 6.3 0 3.5 0 1.8 1.8ZM18.2 6H16l-3.5 3.8-3-3.8H5l5.3 6.6-5 5.4h2.1l3.9-4.2 3.4 4.2H19l-5.5-7 4.7-5Zm-1.7 10.8h-1.2L7.5 7.2h1.3l7.7 9.6Z" clip-rule="evenodd"/>
</symbol></svg>