<svg width="304" height="40" viewBox="0 0 304 40" fill="none" xmlns="http://www.w3.org/2000/svg">
<mask id="path-1-inside-1_17927_25" fill="white">
<path d="M0 20C0 8.95431 8.95431 0 20 0H284C295.046 0 304 8.95431 304 20V20C304 31.0457 295.046 40 284 40H20C8.9543 40 0 31.0457 0 20V20Z"/>
</mask>
<path d="M0 20C0 8.95431 8.95431 0 20 0H284C295.046 0 304 8.95431 304 20V20C304 31.0457 295.046 40 284 40H20C8.9543 40 0 31.0457 0 20V20Z" fill="url(#paint0_linear_17927_25)"/>
<g clip-path="url(#paint1_diamond_17927_25_clip_path)" data-figma-skip-parse="true" mask="url(#path-1-inside-1_17927_25)"><g transform="matrix(0.82042 -0.22761 0.130921 0.425139 -89.1733 40.3902)"><rect x="0" y="0" width="456.95" height="238.299" fill="url(#paint1_diamond_17927_25)" opacity="1" shape-rendering="crispEdges"/><rect x="0" y="0" width="456.95" height="238.299" transform="scale(1 -1)" fill="url(#paint1_diamond_17927_25)" opacity="1" shape-rendering="crispEdges"/><rect x="0" y="0" width="456.95" height="238.299" transform="scale(-1 1)" fill="url(#paint1_diamond_17927_25)" opacity="1" shape-rendering="crispEdges"/><rect x="0" y="0" width="456.95" height="238.299" transform="scale(-1)" fill="url(#paint1_diamond_17927_25)" opacity="1" shape-rendering="crispEdges"/></g></g><path d="M0 20M304 20M304 20M0 20M20 0V1H284V0V-1H20V0ZM304 20M284 40V39H20V40V41H284V40ZM0 20M20 40V39C9.50659 39 1 30.4934 1 20H0H-1C-1 31.598 8.40202 41 20 41V40ZM304 20H303C303 30.4934 294.493 39 284 39V40V41C295.598 41 305 31.598 305 20H304ZM284 0V1C294.493 1 303 9.50659 303 20H304H305C305 8.40202 295.598 -1 284 -1V0ZM20 0V-1C8.40202 -1 -1 8.40202 -1 20H0H1C1 9.50659 9.50659 1 20 1V0Z" data-figma-gradient-fill="{&#34;type&#34;:&#34;GRADIENT_DIAMOND&#34;,&#34;stops&#34;:[{&#34;color&#34;:{&#34;r&#34;:0.47450980544090271,&#34;g&#34;:0.078431375324726105,&#34;b&#34;:0.82352942228317261,&#34;a&#34;:1.0},&#34;position&#34;:0.0},{&#34;color&#34;:{&#34;r&#34;:0.70588237047195435,&#34;g&#34;:0.35686275362968445,&#34;b&#34;:0.95294117927551270,&#34;a&#34;:1.0},&#34;position&#34;:0.052190192043781281},{&#34;color&#34;:{&#34;r&#34;:0.26666668057441711,&#34;g&#34;:0.086274512112140656,&#34;b&#34;:0.63921570777893066,&#34;a&#34;:1.0},&#34;position&#34;:0.10999999940395355},{&#34;color&#34;:{&#34;r&#34;:0.34509804844856262,&#34;g&#34;:0.074509806931018829,&#34;b&#34;:0.78431373834609985,&#34;a&#34;:1.0},&#34;position&#34;:0.14745014905929565},{&#34;color&#34;:{&#34;r&#34;:0.50196081399917603,&#34;g&#34;:0.18823529779911041,&#34;b&#34;:0.83529412746429443,&#34;a&#34;:1.0},&#34;position&#34;:0.19393931329250336},{&#34;color&#34;:{&#34;r&#34;:0.45490196347236633,&#34;g&#34;:0.34509804844856262,&#34;b&#34;:0.92156863212585449,&#34;a&#34;:1.0},&#34;position&#34;:0.28499999642372131},{&#34;color&#34;:{&#34;r&#34;:0.73571622371673584,&#34;g&#34;:0.48550346493721008,&#34;b&#34;:0.97916668653488159,&#34;a&#34;:1.0},&#34;position&#34;:0.46000000834465027},{&#34;color&#34;:{&#34;r&#34;:0.53609949350357056,&#34;g&#34;:0.40611627697944641,&#34;b&#34;:0.94135546684265137,&#34;a&#34;:1.0},&#34;position&#34;:0.56000000238418579},{&#34;color&#34;:{&#34;r&#34;:0.41176471114158630,&#34;g&#34;:0.40784314274787903,&#34;b&#34;:0.91372549533843994,&#34;a&#34;:1.0},&#34;position&#34;:0.63499999046325684},{&#34;color&#34;:{&#34;r&#34;:0.50196081399917603,&#34;g&#34;:0.078431375324726105,&#34;b&#34;:0.82352942228317261,&#34;a&#34;:1.0},&#34;position&#34;:0.68500000238418579},{&#34;color&#34;:{&#34;r&#34;:0.83278113603591919,&#34;g&#34;:0.41614583134651184,&#34;b&#34;:0.97916668653488159,&#34;a&#34;:1.0},&#34;position&#34;:0.78500002622604370},{&#34;color&#34;:{&#34;r&#34;:0.43137255311012268,&#34;g&#34;:0.46666666865348816,&#34;b&#34;:0.92156863212585449,&#34;a&#34;:1.0},&#34;position&#34;:0.85000002384185791},{&#34;color&#34;:{&#34;r&#34;:0.46463149785995483,&#34;g&#34;:0.16875000298023224,&#34;b&#34;:0.89999997615814209,&#34;a&#34;:1.0},&#34;position&#34;:0.93000000715255737},{&#34;color&#34;:{&#34;r&#34;:0.32156863808631897,&#34;g&#34;:0.054901961237192154,&#34;b&#34;:0.72156864404678345,&#34;a&#34;:1.0},&#34;position&#34;:1.0}],&#34;stopsVar&#34;:[{&#34;color&#34;:{&#34;r&#34;:0.47450980544090271,&#34;g&#34;:0.078431375324726105,&#34;b&#34;:0.82352942228317261,&#34;a&#34;:1.0},&#34;position&#34;:0.0},{&#34;color&#34;:{&#34;r&#34;:0.70588237047195435,&#34;g&#34;:0.35686275362968445,&#34;b&#34;:0.95294117927551270,&#34;a&#34;:1.0},&#34;position&#34;:0.052190192043781281},{&#34;color&#34;:{&#34;r&#34;:0.26666668057441711,&#34;g&#34;:0.086274512112140656,&#34;b&#34;:0.63921570777893066,&#34;a&#34;:1.0},&#34;position&#34;:0.10999999940395355},{&#34;color&#34;:{&#34;r&#34;:0.34509804844856262,&#34;g&#34;:0.074509806931018829,&#34;b&#34;:0.78431373834609985,&#34;a&#34;:1.0},&#34;position&#34;:0.14745014905929565},{&#34;color&#34;:{&#34;r&#34;:0.50196081399917603,&#34;g&#34;:0.18823529779911041,&#34;b&#34;:0.83529412746429443,&#34;a&#34;:1.0},&#34;position&#34;:0.19393931329250336},{&#34;color&#34;:{&#34;r&#34;:0.45490196347236633,&#34;g&#34;:0.34509804844856262,&#34;b&#34;:0.92156863212585449,&#34;a&#34;:1.0},&#34;position&#34;:0.28499999642372131},{&#34;color&#34;:{&#34;r&#34;:0.73571622371673584,&#34;g&#34;:0.48550346493721008,&#34;b&#34;:0.97916668653488159,&#34;a&#34;:1.0},&#34;position&#34;:0.46000000834465027},{&#34;color&#34;:{&#34;r&#34;:0.53609949350357056,&#34;g&#34;:0.40611627697944641,&#34;b&#34;:0.94135546684265137,&#34;a&#34;:1.0},&#34;position&#34;:0.56000000238418579},{&#34;color&#34;:{&#34;r&#34;:0.41176471114158630,&#34;g&#34;:0.40784314274787903,&#34;b&#34;:0.91372549533843994,&#34;a&#34;:1.0},&#34;position&#34;:0.63499999046325684},{&#34;color&#34;:{&#34;r&#34;:0.50196081399917603,&#34;g&#34;:0.078431375324726105,&#34;b&#34;:0.82352942228317261,&#34;a&#34;:1.0},&#34;position&#34;:0.68500000238418579},{&#34;color&#34;:{&#34;r&#34;:0.83278113603591919,&#34;g&#34;:0.41614583134651184,&#34;b&#34;:0.97916668653488159,&#34;a&#34;:1.0},&#34;position&#34;:0.78500002622604370},{&#34;color&#34;:{&#34;r&#34;:0.43137255311012268,&#34;g&#34;:0.46666666865348816,&#34;b&#34;:0.92156863212585449,&#34;a&#34;:1.0},&#34;position&#34;:0.85000002384185791},{&#34;color&#34;:{&#34;r&#34;:0.46463149785995483,&#34;g&#34;:0.16875000298023224,&#34;b&#34;:0.89999997615814209,&#34;a&#34;:1.0},&#34;position&#34;:0.93000000715255737},{&#34;color&#34;:{&#34;r&#34;:0.32156863808631897,&#34;g&#34;:0.054901961237192154,&#34;b&#34;:0.72156864404678345,&#34;a&#34;:1.0},&#34;position&#34;:1.0}],&#34;transform&#34;:{&#34;m00&#34;:1640.8399658203125,&#34;m01&#34;:261.84277343750,&#34;m02&#34;:-1040.51464843750,&#34;m10&#34;:-455.21945190429688,&#34;m11&#34;:850.27777099609375,&#34;m12&#34;:-157.13894653320312},&#34;opacity&#34;:1.0,&#34;blendMode&#34;:&#34;NORMAL&#34;,&#34;visible&#34;:true}" mask="url(#path-1-inside-1_17927_25)"/>
<defs>
<clipPath id="paint1_diamond_17927_25_clip_path"><path d="M0 20M304 20M304 20M0 20M20 0V1H284V0V-1H20V0ZM304 20M284 40V39H20V40V41H284V40ZM0 20M20 40V39C9.50659 39 1 30.4934 1 20H0H-1C-1 31.598 8.40202 41 20 41V40ZM304 20H303C303 30.4934 294.493 39 284 39V40V41C295.598 41 305 31.598 305 20H304ZM284 0V1C294.493 1 303 9.50659 303 20H304H305C305 8.40202 295.598 -1 284 -1V0ZM20 0V-1C8.40202 -1 -1 8.40202 -1 20H0H1C1 9.50659 9.50659 1 20 1V0Z" mask="url(#path-1-inside-1_17927_25)"/></clipPath><linearGradient id="paint0_linear_17927_25" x1="54.2857" y1="-3.57143" x2="56.5721" y2="49.3468" gradientUnits="userSpaceOnUse">
<stop stop-color="#1A1634"/>
<stop offset="1" stop-color="#080815"/>
</linearGradient>
<linearGradient id="paint1_diamond_17927_25" x1="0" y1="0" x2="500" y2="500" gradientUnits="userSpaceOnUse">
<stop stop-color="#7914D2"/>
<stop offset="0.0521902" stop-color="#B45BF3"/>
<stop offset="0.11" stop-color="#4416A3"/>
<stop offset="0.14745" stop-color="#5813C8"/>
<stop offset="0.193939" stop-color="#8030D5"/>
<stop offset="0.285" stop-color="#7458EB"/>
<stop offset="0.46" stop-color="#BC7CFA"/>
<stop offset="0.56" stop-color="#8968F0"/>
<stop offset="0.635" stop-color="#6968E9"/>
<stop offset="0.685" stop-color="#8014D2"/>
<stop offset="0.785" stop-color="#D46AFA"/>
<stop offset="0.85" stop-color="#6E77EB"/>
<stop offset="0.93" stop-color="#762BE6"/>
<stop offset="1" stop-color="#520EB8"/>
</linearGradient>
</defs>
</svg>
