<svg width="16" height="16" viewBox="0 0 16 16" fill="none" xmlns="http://www.w3.org/2000/svg">
<g clip-path="url(#clip0_15902_497)">
<path d="M6.07705 9.03946C6.01692 9.03946 4.69408 9.03946 4.09278 9.03946C3.77209 9.03946 3.67188 8.9192 3.67188 8.61855C3.67188 7.81682 3.67188 6.99506 3.67188 6.19333C3.67188 5.87264 3.79213 5.77242 4.09278 5.77242H6.07705C6.07705 5.7123 6.07705 4.54979 6.07705 4.00863C6.07705 3.2069 6.21735 2.44526 6.61822 1.74375C7.03912 1.0222 7.64042 0.541165 8.40206 0.260561C8.90313 0.0801724 9.40421 0 9.94538 0H11.9096C12.1902 0 12.3105 0.120259 12.3105 0.400863V2.68578C12.3105 2.96638 12.1902 3.08664 11.9096 3.08664C11.3684 3.08664 10.8273 3.08664 10.2861 3.10669C9.74495 3.10669 9.46434 3.36725 9.46434 3.92846C9.4443 4.52975 9.46434 5.111 9.46434 5.73234H11.7893C12.11 5.73234 12.2303 5.8526 12.2303 6.17329V8.59851C12.2303 8.9192 12.1301 9.01941 11.7893 9.01941C11.0678 9.01941 9.52447 9.01941 9.46434 9.01941V15.5535C9.46434 15.8942 9.36413 16.0145 9.00335 16.0145C8.16154 16.0145 7.33977 16.0145 6.49796 16.0145C6.19731 16.0145 6.07705 15.8942 6.07705 15.5936C6.07705 13.489 6.07705 9.09959 6.07705 9.03946Z" fill="white"/>
</g>
<defs>
<clipPath id="clip0_15902_497">
<rect width="16" height="16" fill="white"/>
</clipPath>
</defs>
</svg>
