<svg width="16" height="16" viewBox="0 0 16 16" fill="none" xmlns="http://www.w3.org/2000/svg">
<path d="M8.00783 5.5542C6.6585 5.5542 5.5625 6.6502 5.5625 7.99953C5.5625 9.34887 6.6585 10.4475 8.00783 10.4475C9.35717 10.4475 10.4558 9.34887 10.4558 7.99953C10.4558 6.6502 9.35717 5.5542 8.00783 5.5542Z" fill="white"/>
<path d="M11.6933 1.33325H4.31194C2.67194 1.33325 1.33594 2.66925 1.33594 4.30925V11.6906C1.33594 13.3333 2.67194 14.6666 4.31194 14.6666H11.6933C13.3359 14.6666 14.6693 13.3333 14.6693 11.6906V4.30925C14.6693 2.66925 13.3359 1.33325 11.6933 1.33325ZM8.0026 12.3199C5.62127 12.3199 3.6826 10.3813 3.6826 7.99992C3.6826 5.61858 5.62127 3.68259 8.0026 3.68259C10.3839 3.68259 12.3226 5.61858 12.3226 7.99992C12.3226 10.3813 10.3839 12.3199 8.0026 12.3199ZM12.4133 4.46659C11.9093 4.46659 11.4986 4.05859 11.4986 3.55459C11.4986 3.05059 11.9093 2.63992 12.4133 2.63992C12.9173 2.63992 13.3279 3.05059 13.3279 3.55459C13.3279 4.05859 12.9173 4.46659 12.4133 4.46659Z" fill="white"/>
</svg>
