<svg width="15" height="15" viewBox="0 0 15 15" fill="none" xmlns="http://www.w3.org/2000/svg">
<path d="M14.3046 14.299V9.318C14.3046 6.87 13.7776 5 10.9216 5C9.54462 5 8.62663 5.748 8.25263 6.462H8.21863V5.221H5.51562V14.299H8.33763V9.794C8.33763 8.604 8.55863 7.465 10.0206 7.465C11.4656 7.465 11.4826 8.808 11.4826 9.862V14.282H14.3046V14.299Z" fill="white"/>
<path d="M0.921875 5.2207H3.74387V14.2987H0.921875V5.2207Z" fill="white"/>
<path d="M2.33513 0.699219C1.43413 0.699219 0.703125 1.43022 0.703125 2.33122C0.703125 3.23222 1.43413 3.98022 2.33513 3.98022C3.23613 3.98022 3.96713 3.23222 3.96713 2.33122C3.96713 1.43022 3.23613 0.699219 2.33513 0.699219Z" fill="white"/>
</svg>
