<svg width="16" height="16" viewBox="0 0 16 16" fill="none" xmlns="http://www.w3.org/2000/svg">
<g clip-path="url(#clip0_17928_29)">
<path d="M9.02487 8.00093C9.02487 10.5102 7.00459 12.5443 4.51244 12.5443C2.02028 12.5443 0 10.5102 0 8.00093C0 5.49168 2.02028 3.45752 4.51244 3.45752C7.00456 3.45752 9.02487 5.49168 9.02487 8.00093Z" fill="white"/>
<path d="M13.9734 7.99874C13.9734 10.3608 12.9632 12.2755 11.7172 12.2755C10.4711 12.2755 9.46094 10.3608 9.46094 7.99874C9.46094 5.63671 10.4711 3.72192 11.7172 3.72192C12.9632 3.72192 13.9734 5.63671 13.9734 7.99874Z" fill="white"/>
<path d="M16.0011 8.00055C16.0011 10.1168 15.6458 11.8324 15.2076 11.8324C14.7693 11.8324 14.4141 10.1168 14.4141 8.00055C14.4141 5.88426 14.7693 4.1687 15.2076 4.1687C15.6458 4.1687 16.0011 5.88426 16.0011 8.00055Z" fill="white"/>
</g>
<defs>
<clipPath id="clip0_17928_29">
<rect width="16" height="16" fill="white"/>
</clipPath>
</defs>
</svg>
