<svg width="16" height="16" viewBox="0 0 16 16" fill="none" xmlns="http://www.w3.org/2000/svg">
<path d="M0.282608 7.71536L3.96933 9.09136L5.39632 13.6805C5.48763 13.9745 5.84704 14.0831 6.0856 13.8881L8.14064 12.2128C8.35606 12.0372 8.66288 12.0285 8.88801 12.1919L12.5946 14.8829C12.8498 15.0684 13.2113 14.9286 13.2753 14.6202L15.9906 1.55935C16.0604 1.2225 15.7295 0.941482 15.4087 1.06554L0.278288 6.9024C-0.0950996 7.0464 -0.0918463 7.57504 0.282608 7.71536ZM5.16635 8.35888L12.3716 3.92117C12.5011 3.84165 12.6343 4.01674 12.5231 4.11989L6.5767 9.64736C6.36768 9.84192 6.23286 10.1023 6.19467 10.3849L5.99211 11.886C5.96528 12.0865 5.68373 12.1064 5.62843 11.9124L4.84939 9.17504C4.76016 8.86283 4.89019 8.52933 5.16635 8.35888Z" fill="white"/>
</svg>
