<svg width="16" height="16" viewBox="0 0 16 16" fill="none" xmlns="http://www.w3.org/2000/svg">
<g clip-path="url(#clip0_17928_40)">
<path d="M15.0124 4.01123C14.0993 4.01123 13.2568 3.70873 12.5802 3.19842C11.8043 2.61342 11.2468 1.75529 11.0499 0.76623C11.0012 0.521855 10.9749 0.269668 10.9724 0.0112305H8.36398V7.13873L8.36085 11.0428C8.36085 12.0865 7.68117 12.9715 6.73898 13.2828C6.46554 13.3731 6.17023 13.4159 5.86273 13.399C5.47023 13.3775 5.10242 13.259 4.78273 13.0678C4.10242 12.6609 3.64117 11.9228 3.62867 11.0784C3.60898 9.75873 4.67585 8.68279 5.9946 8.68279C6.25492 8.68279 6.50492 8.72529 6.73898 8.80248V6.85436V6.15404C6.4921 6.11748 6.24085 6.09842 5.98679 6.09842C4.54335 6.09842 3.19335 6.69842 2.22835 7.77936C1.49898 8.59623 1.06148 9.63842 0.993978 10.7312C0.90554 12.1669 1.43085 13.5315 2.4496 14.5384C2.59929 14.6862 2.75648 14.8234 2.92085 14.95C3.79429 15.6222 4.8621 15.9865 5.98679 15.9865C6.24085 15.9865 6.4921 15.9678 6.73898 15.9312C7.7896 15.7756 8.75898 15.2947 9.52398 14.5384C10.464 13.6094 10.9834 12.3759 10.989 11.0631L10.9755 5.23311C11.424 5.57904 11.9143 5.86529 12.4405 6.08748C13.259 6.43279 14.1268 6.60779 15.0199 6.60748V4.71342V4.01061C15.0205 4.01123 15.013 4.01123 15.0124 4.01123Z" fill="white"/>
</g>
<defs>
<clipPath id="clip0_17928_40">
<rect width="16" height="16" fill="white"/>
</clipPath>
</defs>
</svg>
