<svg width="215" height="48" viewBox="0 0 215 48" fill="none" xmlns="http://www.w3.org/2000/svg">
<g clip-path="url(#clip0_17912_2503)">
<path fill-rule="evenodd" clip-rule="evenodd" d="M42.5048 23.2444C41.5582 22.4 40.4314 21.8667 39.1693 21.7333H37.9524C36.7354 21.7333 35.7438 20.7556 35.7438 19.5556C35.7438 19.0581 35.7528 18.4894 35.7628 17.8614V17.8613V17.8612V17.861V17.8609V17.8608C35.7751 17.0862 35.7888 16.2214 35.7888 15.2889C35.7888 11.5556 35.7438 9.51111 35.6536 9.2C35.4283 8.08889 34.8874 7.11111 34.1211 6.26667C33.3549 5.33333 32.4083 4.75556 31.2815 4.44444C31.2743 4.44444 31.2467 4.44332 31.2002 4.44143C30.954 4.43144 30.1795 4.4 29.118 4.4C27.901 4.4 26.9094 3.42222 26.9094 2.22222V2.17778C26.9094 0.977778 25.9178 0 24.7008 0H24.4754C23.2585 0 22.2668 0.977778 22.2668 2.17778C22.2668 3.37778 21.2752 4.35556 20.0582 4.35556H19.8329C18.6159 4.35556 17.6243 3.37778 17.6243 2.17778C17.6243 0.977778 16.6327 0 15.4157 0H15.1903C13.9733 0 12.9817 0.977778 12.9817 2.17778C12.9817 3.37778 11.9901 4.35556 10.7731 4.35556H9.91674C9.84912 4.37778 9.78152 4.38889 9.71391 4.4C9.6463 4.41111 9.57869 4.42222 9.51108 4.44444H2.61484C2.46548 4.44444 2.31612 4.47495 2.14114 4.51068L2.1411 4.51069L2.14098 4.51071C2.10479 4.5181 2.0675 4.52572 2.02889 4.53333C1.30772 4.71111 0.81191 5.15556 0.54147 5.82222C0.451323 6.04445 0.40625 6.31111 0.40625 6.71111C0.40625 6.97778 0.451323 7.2 0.496396 7.37778C0.721763 8.04445 1.1725 8.48889 1.89367 8.71111C2.11904 8.8 2.3444 8.84445 2.61484 8.84445H5.00374V8.88889L4.82344 9.42222V15.2V32.7111C4.82344 36.4444 4.86852 38.4889 4.95866 38.8C4.95866 38.8889 5.00374 38.9778 5.04881 39.0667H2.61484C2.54386 39.09 2.44804 39.1011 2.34694 39.1128C2.25544 39.1234 2.15961 39.1344 2.07396 39.1556C1.35279 39.3333 0.856983 39.7778 0.586543 40.4444C0.496396 40.6667 0.451323 40.9778 0.451323 41.3333C0.451323 41.6 0.496396 41.8222 0.54147 42C0.766836 42.6667 1.21757 43.1111 1.93874 43.3333C2.16411 43.4222 2.38948 43.4667 2.65992 43.4667H9.37585C9.38409 43.4667 9.40889 43.4682 9.44941 43.4706H9.44944H9.44953C9.63086 43.4814 10.1267 43.5111 10.8633 43.5111C12.0352 43.5111 13.0268 44.4889 13.0268 45.6444V45.7333C13.0268 46.9333 13.9733 47.8667 15.1903 47.8667H15.5058C16.7228 47.8667 17.6694 46.9333 17.6694 45.7333V45.6889C17.6694 44.4889 18.661 43.5556 19.8329 43.5556H20.1484C21.3203 43.5556 22.3119 44.5333 22.3119 45.6889V45.7333C22.3119 46.9333 23.2585 47.8667 24.4754 47.8667H24.7909C25.9629 47.8667 26.9545 46.9333 26.9545 45.7333C26.9545 44.5333 27.9461 43.6 29.118 43.6H33.2647C37.2312 43.6 39.3046 43.6 39.5299 43.5556C41.1977 43.2889 42.5499 42.4445 43.5865 41.0222C43.9471 40.4889 44.2626 39.8222 44.488 39.0222L44.6683 38.4889V32.7111C44.6683 28.8889 44.6232 26.8 44.5331 26.4444C44.0823 25.1556 43.4513 24.0889 42.5048 23.2444ZM12.8014 8.84445H29.749L30.1096 8.97778C30.5603 9.15556 30.9209 9.51111 31.1463 10.0444L31.3266 10.4L31.3717 15.2C31.3717 15.6418 31.3818 16.1134 31.3924 16.6102V16.6103V16.6104V16.6105V16.6106V16.6107C31.4042 17.1634 31.4167 17.7471 31.4167 18.3556V19.5556C31.4167 19.8222 31.3717 20.0889 31.3266 20.2667C31.2815 20.4444 31.2364 20.5778 31.1914 20.6222C31.1688 20.6444 31.1463 20.6778 31.1125 20.7278C31.0787 20.7778 31.0336 20.8444 30.966 20.9333C30.6956 21.2889 30.335 21.5556 29.8842 21.6889H29.749C25.7375 21.6889 19.6977 21.6889 15.3706 21.7333H10.9534L10.5928 21.5556C10.097 21.2889 9.73644 20.9333 9.55615 20.4444C9.466 20.1778 9.466 18.4 9.466 15.1556V10.3111L9.60122 10C9.82659 9.55556 10.1872 9.2 10.683 8.97778L11.0436 8.84445H12.8014ZM39.8905 37.6L39.7553 37.9111C39.5299 38.3556 39.1694 38.7111 38.6735 38.9333L38.358 39.1111H12.8014H10.8633L10.5027 38.9778C10.052 38.8 9.69137 38.4445 9.466 37.9111L9.28571 37.5556L9.24063 32.7556C9.24063 32.3138 9.23054 31.8421 9.2199 31.3453L9.2199 31.3452C9.20806 30.7925 9.19556 30.2086 9.19556 29.6V28.4C9.19556 28.1333 9.24063 27.8667 9.28571 27.6889C9.33078 27.5111 9.37585 27.3778 9.42093 27.3333C9.44346 27.3111 9.466 27.2778 9.4998 27.2278L9.49984 27.2277L9.49986 27.2277L9.49988 27.2277L9.4999 27.2276C9.5337 27.1777 9.57875 27.111 9.64629 27.0222C9.91674 26.6667 10.2773 26.4 10.7281 26.2667C10.8182 26.2222 30.0645 26.2222 33.445 26.2222H38.4482L38.8088 26.4C39.3046 26.6667 39.6652 27.0222 39.8455 27.5111C39.9356 27.7333 39.9807 29.4667 39.9807 32.7556L39.8905 37.6ZM139.139 21.8222C139.365 21.9111 139.635 21.9556 139.951 21.9556C140.402 21.9556 140.807 21.8222 141.123 21.6C141.483 21.3778 141.709 21.0667 141.889 20.7111L142.114 20.2667L142.159 17.5111C142.159 15.6889 142.25 14.6667 142.34 14.4889C142.565 14 142.926 13.6889 143.421 13.4222L143.827 13.2444L151.084 13.2H151.129H151.174H151.219H151.264H151.309H151.354H151.399H151.444H151.49H151.535H151.58H151.625H151.67H151.715H151.76H151.805H151.85H151.895H151.94H151.985H152.03H152.076H152.121H152.166H152.211H152.256H152.301H152.346H152.391H152.436H152.481H152.526H152.571H152.616H152.661H152.707H152.752H152.797H152.842H152.887H152.932H152.977H153.022H153.067H153.112H153.157H153.202H153.247H153.292H153.338H153.383H153.428H153.473H153.518H153.563H153.608H153.653H153.698H153.743H153.788H153.833H153.878H153.924C156.898 13.2 158.656 13.1556 159.152 13.1111C159.603 13.0667 159.963 12.9333 160.144 12.7556L160.279 12.6222C160.549 12.4 160.73 12.1778 160.82 11.9111L161 11.5111V1.68889L160.775 1.28889C160.504 0.755556 160.099 0.355556 159.603 0.177778L158.251 0H149.011C142.835 0 139.635 0 139.455 0.0444445C139.139 0.133333 138.869 0.266667 138.553 0.533333C138.283 0.755556 138.058 1.02222 137.877 1.33333L137.742 1.6V20.4L137.922 20.7556C138.193 21.2889 138.599 21.6444 139.139 21.8222ZM143.602 4.71111L143.962 4.57778H148.875L153.788 4.62222L154.149 4.8C154.645 5.02222 155.005 5.37778 155.231 5.86667C155.321 6 155.366 6.31111 155.366 6.75556C155.366 7.64445 154.96 8.31111 154.149 8.71111L153.743 8.88889H148.74L143.737 8.84445L143.421 8.66667C142.655 8.26667 142.25 7.6 142.25 6.71111C142.204 5.73333 142.655 5.06667 143.602 4.71111ZM104.884 1.0227C104.614 0.667146 104.298 0.356033 103.847 0.2227L103.532 0.0893665L94.2918 0.0449219C88.1618 0.0449219 84.9616 0.0449219 84.7813 0.0893665C84.0601 0.2227 83.5192 0.667146 83.2488 1.28937L83.0685 1.64492L83.0234 10.9783V20.2672L83.1587 20.6227C83.2939 20.9783 83.5643 21.3338 83.9249 21.6005C84.2855 21.8672 84.7362 22.0005 85.187 22.0005C85.5025 22.0005 85.818 21.9116 86.1786 21.7783C86.8547 21.4227 87.2603 20.8894 87.3956 20.1338C87.4406 19.8672 87.4406 18.9783 87.4406 17.4227C87.4406 15.8227 87.4857 14.8894 87.5758 14.6672C87.7561 14.1338 88.1167 13.7338 88.7027 13.4672L89.0633 13.2894H94.6524L95.0129 13.4672C95.5088 13.7338 95.9144 14.0894 96.0947 14.6672C96.1849 14.9338 96.2299 15.156 96.275 15.4672C96.4102 16.8005 97.1314 17.5116 98.4836 17.6449C99.7907 17.7783 100.557 18.4894 100.692 19.7783C100.827 20.756 101.233 21.4227 101.999 21.7783C102.225 21.8672 102.54 21.9116 102.991 21.9116C103.487 21.9116 103.847 21.8672 104.073 21.7338C104.884 21.2894 105.29 20.6227 105.29 19.7338C105.29 18.9783 104.974 18.4005 104.388 18.0005C104.118 17.7783 103.622 17.6449 102.946 17.556C102.315 17.5116 101.819 17.2894 101.413 16.8894C101.008 16.4894 100.782 15.956 100.782 15.3783C100.782 14.8005 101.008 14.2672 101.413 13.8672C101.774 13.5116 102.315 13.2894 103.036 13.2005C104.118 13.0672 104.839 12.6227 105.154 11.8227C105.245 11.556 105.29 9.77827 105.29 6.57827V4.84493V4.84405C105.29 3.11125 105.29 2.13375 105.245 1.77826C105.23 1.74219 105.215 1.70496 105.2 1.66674L105.2 1.6667C105.123 1.46945 105.035 1.24608 104.884 1.0227ZM100.467 7.68938C100.196 8.22271 99.7907 8.62271 99.2499 8.80049C99.0245 8.88938 97.2666 8.93382 93.9312 8.93382L88.9731 8.88938L88.6576 8.7116C87.8463 8.35604 87.4406 7.68938 87.4406 6.80049C87.4406 6.35604 87.4857 6.04493 87.6209 5.82271C87.8463 5.37827 88.1167 5.06715 88.4773 4.84493C88.7027 4.7116 88.9731 4.62271 89.2886 4.62271C89.6041 4.57827 90.5507 4.57827 92.0832 4.57827H94.1566L99.0696 4.62271L99.34 4.75604C99.8358 5.02271 100.151 5.33382 100.422 5.77827C100.557 6.04493 100.602 6.35604 100.602 6.75604C100.647 7.1116 100.602 7.42271 100.467 7.68938ZM76.5769 4.48896C77.4333 4.08897 77.839 3.4223 77.839 2.44452C77.839 1.86674 77.6587 1.33341 77.253 0.888966C77.0277 0.66675 76.8023 0.533418 76.5769 0.400091L76.5769 0.400079L76.1713 0.177856H66.7058H60.1702C58.1419 0.177856 57.0151 0.222301 56.9249 0.266745C56.2939 0.444521 55.8432 0.888966 55.5727 1.55563L55.4375 1.91119V20.4445L55.5727 20.8001C55.6629 21.0667 55.8432 21.289 56.0685 21.5556C56.339 21.8223 56.5643 21.9556 56.8348 22.0445L57.1954 22.1778L66.6608 22.1334C72.926 22.1334 76.2163 22.089 76.4417 22.0001C76.622 21.9112 76.8474 21.7778 77.0727 21.5556C77.2981 21.3334 77.4784 21.1556 77.5685 20.9334C77.7488 20.6223 77.839 20.2667 77.839 19.9112C77.839 18.9778 77.3882 18.3112 76.5318 17.9112L76.1262 17.7334H61.7027L61.252 17.5556C60.7111 17.289 60.3505 16.889 60.1251 16.4001L59.9899 16.0445V6.48896L60.1251 6.1334C60.3505 5.55562 60.7111 5.15562 61.252 4.9334L61.6126 4.75562C62.2846 4.75562 63.0882 4.748 64.0296 4.73907L64.0297 4.73906C65.3611 4.72643 66.9683 4.71118 68.8694 4.71118C72.0696 4.71118 74.5035 4.71118 76.1262 4.66673L76.5769 4.48896ZM110.524 21.6005C110.479 21.5116 110.479 21.4672 110.479 21.4227C110.479 21.3783 110.479 21.2894 110.344 21.2005V20.9338V20.6227V19.8672C110.344 18.8449 110.389 18.3116 110.479 18.1783C110.524 18.0449 110.614 17.956 110.749 17.8672C110.885 17.7783 112.778 17.7338 116.519 17.7338H120.981C125.263 17.7338 127.472 17.6894 127.607 17.556C127.695 17.498 127.764 17.421 127.839 17.3374L127.839 17.3373C127.879 17.2929 127.921 17.2467 127.967 17.2005C128.058 17.0672 128.103 16.8005 128.103 16.4894V16.0449V15.4227L128.058 13.8672L127.877 13.6894C127.742 13.556 127.562 13.4672 127.381 13.4227C126.931 13.3783 125.173 13.3338 122.108 13.3338H119.223H116.564C113.724 13.3338 112.057 13.3338 111.516 13.2894C110.975 13.2449 110.659 13.156 110.569 12.9783C110.569 12.9338 110.524 12.8894 110.524 12.8894L110.389 12.6672L110.344 6.7116V3.4227C110.344 1.64492 110.389 0.667146 110.479 0.533813C110.506 0.506904 110.534 0.475923 110.563 0.442102L110.563 0.442082C110.632 0.364182 110.714 0.271219 110.84 0.178255C111.02 0.0893665 111.245 0.0449219 111.606 0.0449219H112.057H112.688C113.002 0.0604159 113.272 0.0705085 113.499 0.0789656C113.922 0.0947679 114.193 0.10486 114.31 0.133811C114.491 0.178255 114.626 0.311589 114.761 0.533813C114.851 0.667146 114.941 0.978257 114.941 1.37826C114.986 1.77819 114.986 2.88899 114.986 4.71067V4.7116C114.986 6.93382 114.986 8.08938 115.031 8.22271C115.122 8.62271 115.392 8.84493 115.843 8.93382C115.933 8.97827 117.916 8.97827 121.792 8.97827H124.181C126.345 8.97827 127.517 8.93382 127.607 8.84493C127.742 8.75604 127.832 8.66716 127.922 8.53382C128.013 8.44493 128.058 7.5116 128.058 5.68938V3.86715C128.058 1.86715 128.103 0.800479 128.238 0.578257C128.283 0.489368 128.418 0.356033 128.598 0.2227C128.734 0.133811 129.32 0.0893665 130.311 0.0893665H131.393C131.618 0.0893665 131.799 0.133805 131.979 0.178246L131.979 0.178255C132.159 0.2227 132.294 0.267144 132.294 0.311589C132.34 0.356033 132.43 0.444922 132.565 0.667146V21.5116L132.43 21.6894C132.43 21.7116 132.418 21.7227 132.407 21.7338C132.396 21.7449 132.385 21.756 132.385 21.7783C132.294 21.956 131.934 22.0449 131.258 22.0894C130.582 22.1338 128.463 22.1338 124.857 22.1338H121.432L111.02 22.0894C111.02 22.0894 110.93 22.0449 110.885 22.0005C110.794 21.956 110.749 21.9116 110.749 21.9116C110.749 21.8841 110.732 21.8736 110.708 21.8591C110.702 21.8551 110.695 21.8508 110.687 21.8457C110.678 21.8394 110.669 21.832 110.659 21.8227L110.569 21.7338C110.569 21.6894 110.569 21.6449 110.524 21.6005ZM166.776 4.57875L166.415 4.40095C165.604 3.95651 165.153 3.28984 165.198 2.31207C165.198 1.95651 165.243 1.68984 165.334 1.46762C165.559 0.845399 166.055 0.400955 166.731 0.178733C166.911 0.134288 170.111 0.0898438 176.332 0.0898438H182.281C184.58 0.0898438 185.842 0.134288 186.022 0.223177C186.518 0.400955 186.924 0.75651 187.194 1.2454C187.374 1.55651 187.465 1.95651 187.465 2.31207C187.465 3.28984 187.059 4.00095 186.203 4.40095L185.842 4.57875L183.047 4.6232C181.154 4.66764 180.073 4.71209 179.847 4.80098C179.351 5.0232 178.946 5.37875 178.72 5.86764C178.54 6.2232 178.45 7.28987 178.45 9.15653C178.45 9.97498 178.463 10.7442 178.474 11.4707V11.4714V11.472V11.4727V11.4733V11.4738V11.4744V11.4749V11.4754V11.4758V11.4763V11.4767V11.4771V11.4775V11.4778L178.474 11.48C178.485 12.1308 178.495 12.7474 178.495 13.3343V16.5343C178.495 18.3953 178.466 19.5069 178.454 19.939V19.9395V19.9397L178.454 19.9408C178.452 20.0443 178.45 20.1084 178.45 20.1343C178.315 20.712 178.044 21.1565 177.684 21.5121C177.323 21.8676 176.827 22.0454 176.241 22.0454C175.295 22.0454 174.574 21.6454 174.168 20.7565L174.033 20.4898C173.988 18.9343 173.988 16.5788 173.988 13.4232C173.988 11.582 173.972 10.0132 173.96 8.70792V8.70565V8.70375C173.95 7.7737 173.943 6.97755 173.943 6.31209L173.762 5.95653C173.537 5.46764 173.131 5.11209 172.635 4.84542L172.275 4.66764C171.644 4.6232 170.742 4.6232 169.525 4.6232C168.818 4.6232 168.217 4.60818 167.714 4.5956C167.352 4.58654 167.04 4.57875 166.776 4.57875ZM214.73 4.88835C214.415 3.59948 213.784 2.53281 212.837 1.68837C211.891 0.843924 210.764 0.31059 209.502 0.177257C209.276 0.132812 207.338 0.132812 203.732 0.132812C200.126 0.132812 198.188 0.132812 197.963 0.177257C196.115 0.443924 194.718 1.28837 193.681 2.75504C193.23 3.37726 192.915 4.2217 192.779 5.2439C192.734 5.37724 192.734 7.37724 192.734 11.155C192.734 14.8883 192.779 16.9328 192.87 17.2439C193.14 18.355 193.636 19.3328 194.402 20.1773C195.168 21.0217 196.16 21.5995 197.287 21.9106C197.557 21.9995 199.676 22.0439 203.642 22.0439C207.609 22.0439 209.682 22.0439 209.907 21.9995C211.575 21.7328 212.927 20.8883 213.964 19.4661C214.325 18.9328 214.64 18.2661 214.865 17.4661L215.046 16.9328V11.155C214.98 9.78743 214.933 8.63535 214.894 7.7051L214.894 7.70031L214.894 7.69944C214.827 6.06346 214.788 5.11493 214.73 4.88835ZM210.223 16.0884L210.088 16.3995C209.862 16.8439 209.502 17.1995 209.006 17.4217L208.645 17.555H198.639L198.278 17.4217C197.828 17.2439 197.467 16.8883 197.242 16.355L197.061 15.9995L197.016 11.1995C197.016 10.7599 197.006 10.2907 196.996 9.79657V9.79614V9.79569V9.79522V9.79472V9.7942V9.79366V9.7931V9.79252V9.79193V9.7913V9.79066V9.78997V9.78926L196.996 9.78668V9.78575V9.78477V9.78372C196.984 9.23255 196.971 8.65047 196.971 8.0439V6.8439C196.971 6.57724 197.016 6.31057 197.061 6.13279C197.106 5.95501 197.152 5.82168 197.197 5.77724C197.219 5.75501 197.242 5.72167 197.276 5.67166C197.309 5.62166 197.354 5.555 197.422 5.46612C197.692 5.11057 198.053 4.8439 198.504 4.71057C198.511 4.71057 198.529 4.71028 198.558 4.70974L198.638 4.70819C199.108 4.69897 200.781 4.66612 203.687 4.66612H208.69L209.051 4.8439C209.547 5.11057 209.907 5.46612 210.088 5.95501C210.178 6.17724 210.223 7.91061 210.223 11.1995V16.0884ZM76.042 34.845C76.2674 34.8894 76.4928 34.9783 76.7632 35.156C77.1689 35.4227 77.4844 35.8227 77.6196 36.3116C77.7098 36.6227 77.7548 37.4672 77.7548 38.8894V41.4672L77.7098 46.2227L77.5745 46.5783C77.3041 47.0672 76.9886 47.4227 76.4928 47.645L76.0871 47.8227H56.9309L56.6605 47.6894C56.1647 47.4672 55.8041 47.1116 55.5787 46.6672L55.3984 46.3116V27.4227L55.5787 27.0672C55.8942 26.5339 56.2999 26.1339 56.8859 25.9561C57.0662 25.9116 60.3114 25.8672 66.6217 25.8672L76.1322 25.9116L76.5378 26.0894C76.9886 26.3561 77.3041 26.7116 77.5295 27.156C77.6196 27.3783 77.6647 27.6894 77.6647 28.1338C77.6647 29.156 77.2139 29.8671 76.3576 30.2671L75.997 30.4005L68.65 30.445L61.3481 30.4894L61.0777 30.6227C60.4467 30.9339 60.041 31.4227 59.8607 32.0894C59.8156 32.3116 59.7706 34.0005 59.7706 37.156V41.8671L59.9508 42.2227C60.2213 42.7116 60.5819 43.1116 61.0777 43.3339L61.4833 43.5116H66.2611H69.0557H69.056C70.2277 43.5116 70.9488 43.5116 71.2643 43.4672C71.5347 43.4227 71.8051 43.3338 72.0305 43.2005C72.7517 42.756 73.1123 42.1338 73.1123 41.3783C73.1123 41.1886 73.0794 41.0313 73.0418 40.8511L73.0417 40.8508L73.0417 40.8507C73.0353 40.8199 73.0287 40.7885 73.0221 40.756C72.7517 39.8227 72.0305 39.2894 70.8586 39.156C70.4079 39.1116 70.0924 39.0671 69.9571 38.9783C69.6416 38.8449 69.3261 38.5783 69.1007 38.2227C68.8754 37.8672 68.7402 37.4672 68.7402 37.0227C68.7402 36.7116 68.7852 36.445 68.8754 36.2227C69.1007 35.6894 69.4613 35.2894 69.9571 35.0227L70.3177 34.845L73.0672 34.8005H74.4194C75.2758 34.8005 75.8167 34.8005 76.042 34.845ZM88.7562 30.6657L89.0717 30.4879L96.2834 30.4435L103.54 30.3991L103.901 30.2213C104.005 30.187 104.163 30.0736 104.374 29.9216L104.466 29.8559C104.501 29.8303 104.539 29.8039 104.577 29.7768C105.028 29.3768 105.253 28.8435 105.253 28.1769C105.253 27.3324 104.938 26.7102 104.261 26.2657C103.991 26.0879 103.585 25.9546 103.044 25.9546C102.504 25.9102 100.61 25.9102 97.3652 25.9102H93.9847C87.7195 25.9102 84.5193 25.9546 84.339 25.999C83.753 26.2213 83.3474 26.5768 83.0319 27.1102L82.8516 27.4657V46.3546L83.0319 46.7102C83.3023 47.199 83.708 47.5546 84.2488 47.7768C84.4291 47.8657 84.9249 47.9102 85.7363 47.9102H94.1199L103.63 47.8657L103.901 47.7324C104.757 47.3324 105.163 46.6657 105.163 45.7324V45.7322C105.163 45.4657 105.163 45.2879 105.118 45.199C104.938 44.4879 104.487 43.9991 103.811 43.688C103.675 43.6435 101.196 43.599 96.3736 43.5546L89.1168 43.5102L88.7562 43.3324C88.3054 43.1102 87.9449 42.7991 87.6744 42.3546C87.5392 42.088 87.4941 41.7768 87.4941 41.3768C87.4941 40.9768 87.5392 40.6657 87.6744 40.4435C87.9449 39.9546 88.3054 39.599 88.7562 39.3768L89.2069 39.199C89.471 39.199 89.7825 39.1913 90.1447 39.1822H90.1448H90.1449L90.1453 39.1822L90.1456 39.1822C90.6486 39.1696 91.2492 39.1546 91.9564 39.1546C93.1734 39.1546 94.1199 39.1546 94.7059 39.1102L95.0665 38.9324C95.5623 38.7102 95.9228 38.3546 96.1482 37.8657C96.2384 37.7324 96.2834 37.4213 96.2834 36.9768C96.2834 36.5768 96.2384 36.2213 96.1031 35.999C95.8778 35.5546 95.5172 35.1991 95.0214 35.0213L94.6608 34.8435C94.3968 34.8435 94.0855 34.8357 93.7236 34.8267H93.7235H93.7234H93.7233H93.7231H93.723H93.7228C93.2197 34.8141 92.6188 34.7991 91.9113 34.7991C90.6943 34.7991 89.7478 34.799 89.1168 34.7546L88.7562 34.5769C88.3054 34.3546 87.9449 34.0435 87.6744 33.599C87.5392 33.3324 87.4941 33.0213 87.4941 32.6213C87.4941 32.1769 87.5392 31.8657 87.6744 31.6435C87.8998 31.2879 88.2604 30.9324 88.7562 30.6657ZM116.564 30.4879L116.248 30.6657C115.753 30.9324 115.392 31.2879 115.167 31.6435C115.031 31.8657 114.986 32.1769 114.986 32.6213C114.986 33.0213 115.031 33.3324 115.167 33.599C115.437 34.0435 115.798 34.3546 116.248 34.5769L116.609 34.7546C117.24 34.799 118.187 34.7991 119.404 34.7991C120.111 34.7991 120.712 34.8141 121.215 34.8267H121.215H121.215H121.215C121.578 34.8357 121.889 34.8435 122.153 34.8435L122.514 35.0213C123.009 35.1991 123.325 35.5546 123.595 35.999C123.731 36.2213 123.776 36.5768 123.776 36.9768C123.776 37.4213 123.731 37.7324 123.64 37.8657C123.415 38.3546 123.054 38.7102 122.559 38.9324L122.198 39.1102C121.612 39.1546 120.666 39.1546 119.449 39.1546C118.741 39.1546 118.141 39.1696 117.638 39.1822L117.638 39.1822L117.637 39.1822H117.637H117.637C117.275 39.1913 116.963 39.199 116.699 39.199L116.248 39.3768C115.798 39.599 115.437 39.9546 115.167 40.4435C115.031 40.6657 114.986 40.9768 114.986 41.3768C114.986 41.7768 115.031 42.088 115.167 42.3546C115.437 42.7991 115.798 43.1102 116.248 43.3324L116.609 43.5102L123.866 43.5546C128.689 43.599 131.168 43.6435 131.303 43.688C131.979 43.9991 132.43 44.4879 132.61 45.199C132.655 45.2879 132.655 45.4657 132.655 45.7324C132.655 46.6657 132.249 47.3324 131.393 47.7324L131.123 47.8657L121.612 47.9102H113.228C112.417 47.9102 111.921 47.8657 111.741 47.7768C111.2 47.5546 110.794 47.199 110.524 46.7102L110.344 46.3546V27.4657L110.524 27.1102C110.84 26.5768 111.245 26.2213 111.831 25.999C112.011 25.9546 115.212 25.9102 121.477 25.9102H124.857C128.103 25.9102 129.996 25.9102 130.537 25.9546C131.078 25.9546 131.483 26.0879 131.754 26.2657C132.43 26.7102 132.745 27.3324 132.745 28.1769C132.745 28.8435 132.52 29.3768 132.069 29.7768C131.997 29.8278 131.929 29.8764 131.866 29.9217L131.866 29.9218C131.655 30.0736 131.497 30.187 131.393 30.2213L131.032 30.3991L123.776 30.4435L116.564 30.4879ZM158.025 25.6895C157.665 25.6895 157.439 25.6895 157.394 25.7339C156.628 26.0006 156.132 26.445 155.862 27.1117C155.772 27.2895 155.727 27.5561 155.727 27.9117C155.727 28.4006 155.772 28.7561 155.907 28.9783C156.132 29.4672 156.493 29.7783 156.989 30.045C157.259 30.1783 157.575 30.2228 157.935 30.2228C158.927 30.2228 159.603 29.8228 159.963 28.9783C160.099 28.7561 160.144 28.4006 160.144 27.9562C160.144 27.5117 160.099 27.2006 159.963 26.9784C159.603 26.1339 158.972 25.7339 158.025 25.6895ZM157.461 43.3553C157.636 43.3196 157.786 43.2891 157.935 43.2891C158.521 43.2891 159.062 43.5113 159.468 43.9113C159.918 44.3113 160.144 44.8446 160.144 45.5113C160.144 46.4446 159.693 47.1113 158.837 47.5113C158.611 47.6446 158.296 47.6891 157.935 47.6891C157.665 47.6891 157.439 47.6446 157.214 47.5557C156.493 47.3335 156.042 46.8891 155.817 46.2224C155.772 46.0446 155.727 45.8224 155.727 45.5557C155.727 45.1557 155.772 44.8891 155.862 44.6668C156.132 44.0002 156.628 43.5557 157.349 43.3779C157.386 43.3706 157.422 43.3633 157.457 43.3562L157.461 43.3554L157.461 43.3553ZM203.74 8.84375C203.59 8.84375 203.441 8.87425 203.266 8.90999C203.23 8.91739 203.193 8.92501 203.154 8.93264C202.433 9.11042 201.937 9.55486 201.666 10.2215C201.576 10.4438 201.531 10.7104 201.531 11.1104C201.531 11.3771 201.576 11.5993 201.621 11.7771C201.847 12.4437 202.297 12.8882 203.019 13.1104C203.244 13.1993 203.469 13.2437 203.74 13.2437C204.1 13.2437 204.416 13.1993 204.641 13.066C205.498 12.666 205.948 11.9993 205.948 11.066C205.948 10.3993 205.723 9.86597 205.272 9.46597C204.867 9.06597 204.326 8.84375 203.74 8.84375ZM69.5024 10.2215C69.7729 9.55486 70.2687 9.11042 70.9898 8.93264C71.1701 8.8882 71.3955 8.84375 71.5758 8.84375C72.1617 8.84375 72.6575 9.06597 73.1083 9.46597C73.559 9.86597 73.7844 10.3993 73.7844 11.066C73.7844 11.9993 73.3336 12.666 72.4773 13.066C72.2519 13.1993 71.9364 13.2437 71.5758 13.2437C71.3053 13.2437 71.08 13.1993 70.8546 13.1104C70.1334 12.8882 69.6827 12.4437 69.4573 11.7771C69.4123 11.5993 69.3672 11.3771 69.3672 11.1104C69.3672 10.7104 69.4123 10.4438 69.5024 10.2215ZM24.568 17.1558C24.2975 17.1558 24.0722 17.1114 23.8468 17.0225C23.1707 16.8003 22.72 16.3558 22.4495 15.6891C22.4044 15.5114 22.3594 15.2891 22.3594 15.0225C22.3594 14.6225 22.4044 14.3558 22.4946 14.1336C22.765 13.4669 23.2608 13.0225 23.982 12.8447C24.0206 12.8371 24.0578 12.8295 24.094 12.8222L24.0943 12.8221C24.2692 12.7864 24.4186 12.7559 24.568 12.7559C25.1539 12.7559 25.6497 12.9781 26.1005 13.3781C26.5512 13.7781 26.7766 14.3114 26.7766 14.9781C26.7766 15.9114 26.3258 16.5781 25.4694 16.9781C25.2441 17.1114 24.9286 17.1558 24.568 17.1558ZM15.1046 17.0225C15.33 17.1114 15.5553 17.1558 15.8258 17.1558C16.1864 17.1558 16.5019 17.1114 16.7272 16.9781C17.5836 16.5781 18.0344 15.9114 18.0344 14.9781C18.0344 14.3114 17.809 13.7781 17.3583 13.3781C16.9075 12.9781 16.4117 12.7559 15.8258 12.7559C15.6764 12.7559 15.5271 12.7864 15.3521 12.8221L15.3519 12.8221L15.3514 12.8222C15.3154 12.8296 15.2783 12.8372 15.2398 12.8447C14.5187 13.0225 14.0228 13.4669 13.7524 14.1336C13.6623 14.3558 13.6172 14.6225 13.6172 15.0225C13.6172 15.2891 13.6623 15.5114 13.7073 15.6891C13.9327 16.3558 14.3834 16.8003 15.1046 17.0225ZM151.901 38.311C152.307 38.711 152.848 38.8888 153.524 38.9333C154.155 38.9777 154.696 39.2 155.011 39.5555C155.417 39.9555 155.597 40.4889 155.597 41.1111C155.597 41.7777 155.417 42.311 155.011 42.711C154.606 43.111 154.065 43.2889 153.434 43.2889C152.803 43.2889 152.262 43.0666 151.856 42.711C151.451 42.311 151.225 41.8221 151.18 41.1999C151.09 40.311 150.819 39.7333 150.324 39.3777C150.098 39.1555 149.828 39.0666 149.512 39.0222C149.197 38.9777 148.295 38.9777 146.763 38.9777H143.968L143.653 39.1111C143.157 39.3333 142.796 39.6889 142.571 40.1777L142.391 40.5333C142.346 41.1555 142.346 42.0889 142.346 43.3333C142.346 44.0619 142.33 44.6992 142.317 45.2271V45.2275V45.2279C142.308 45.6013 142.301 45.92 142.301 46.1777L142.12 46.5333C141.895 47.0222 141.534 47.3777 141.084 47.6C140.858 47.7333 140.498 47.7777 140.002 47.7777C139.551 47.7777 139.191 47.7333 138.92 47.6C138.469 47.3777 138.154 47.0222 137.883 46.5333L137.703 46.1777V27.2889L137.838 26.9777C138.109 26.4 138.56 26 139.191 25.7777C139.461 25.6889 139.686 25.6444 139.957 25.6444C140.453 25.6444 140.858 25.7777 141.264 26.0444C141.67 26.311 141.94 26.5777 142.12 26.9333L142.301 27.2889C142.346 27.9109 142.346 28.8437 142.346 30.0875V30.0888C142.346 30.8178 142.361 31.4553 142.374 31.9834C142.383 32.3568 142.391 32.6755 142.391 32.9333L142.571 33.2889C142.796 33.7777 143.157 34.1333 143.608 34.3555L144.013 34.5333L146.763 34.5777C148.611 34.5777 149.648 34.5333 149.873 34.4444C150.639 34.1333 151.09 33.4666 151.225 32.4C151.27 31.4666 151.676 30.8444 152.352 30.4888C152.667 30.3555 152.983 30.2666 153.344 30.2666C154.2 30.2666 154.831 30.6221 155.237 31.3777C155.417 31.6888 155.507 32 155.507 32.3555C155.507 32.9777 155.327 33.4666 154.921 33.9111C154.516 34.3111 154.02 34.5333 153.344 34.5777C152.397 34.7111 151.766 35.111 151.451 35.8221C151.36 36.0444 151.315 36.3555 151.315 36.8C151.315 37.4222 151.541 37.9555 151.901 38.311ZM185.705 35.1553C185.615 35.1108 185.389 35.0664 185.074 35.0664H185.029C184.578 35.1109 184.173 35.2442 183.902 35.5553C183.587 35.8664 183.451 36.222 183.406 36.622V36.7108C183.406 37.0664 183.496 37.422 183.722 37.6886C183.902 37.9997 184.173 38.1775 184.533 38.3108C184.623 38.3553 184.849 38.3997 185.164 38.3997H185.209C185.66 38.3553 186.066 38.222 186.336 37.9109C186.652 37.5997 186.787 37.2442 186.832 36.8442V36.7553C186.832 36.3997 186.742 36.0442 186.516 35.7775C186.336 35.422 186.066 35.2442 185.705 35.1553ZM209.506 25.9995C210.768 26.1329 211.895 26.6662 212.841 27.5106C213.788 28.3551 214.419 29.4217 214.915 30.7106C215.005 31.0662 215.05 33.1551 215.05 36.9773V42.7551L214.87 43.2884C214.644 44.0884 214.329 44.7551 213.968 45.2884C212.932 46.7106 211.579 47.5551 209.912 47.8217C209.686 47.8662 180.163 47.8662 176.197 47.8662C172.23 47.8662 170.112 47.8217 169.841 47.7329C168.715 47.4217 167.723 46.844 166.957 45.9995C166.191 45.1551 165.65 44.1773 165.424 43.0662C165.334 42.7551 165.289 40.7106 165.289 36.9773C165.289 33.1995 165.289 31.1995 165.334 31.0662C165.469 30.044 165.785 29.1995 166.236 28.5773C167.272 27.1106 168.67 26.2662 170.518 25.9995C170.743 25.9551 172.681 25.9551 176.287 25.9551C179.893 25.9551 209.281 25.9551 209.506 25.9995ZM174.169 38.3106C173.808 38.1773 173.538 37.9995 173.357 37.6884C173.132 37.3773 173.042 37.0662 173.042 36.6217V36.5329C173.087 36.1329 173.222 35.7773 173.537 35.4662C173.808 35.1551 174.214 35.0217 174.664 34.9773C174.884 34.9502 175.037 34.9231 175.133 34.9061C175.194 34.8952 175.233 34.8884 175.25 34.8884C175.611 34.7551 175.881 34.5773 176.107 34.2662C176.332 33.9551 176.467 33.644 176.467 33.2884C176.467 33.244 176.467 33.1106 176.422 32.9773C176.332 32.3995 176.017 31.9995 175.521 31.7773C175.431 31.7329 175.25 31.6884 175.025 31.644H174.664C174.214 31.644 173.808 31.8217 173.537 32.1329C173.267 32.444 173.087 32.7995 173.042 33.2884C172.906 34.3551 172.366 34.9329 171.329 35.0217C170.247 35.1106 169.661 35.6884 169.661 36.7106C169.661 37.244 169.796 37.644 170.112 37.9106C170.427 38.1773 170.833 38.3551 171.329 38.3995C172.321 38.4884 172.906 39.0662 173.042 40.1329C173.087 40.444 173.132 40.6662 173.267 40.8884C173.583 41.4662 174.078 41.7773 174.754 41.7773C174.98 41.7773 175.205 41.7329 175.431 41.644C176.107 41.3329 176.422 40.7995 176.422 40.0884C176.422 39.5995 176.242 39.1995 175.926 38.8884C175.656 38.6217 175.295 38.444 174.8 38.3995C174.484 38.3995 174.259 38.3551 174.169 38.3106ZM186.834 40.1329C186.969 39.0662 187.51 38.4884 188.547 38.3995C189.674 38.3106 190.26 37.7329 190.215 36.6662C190.215 36.1329 190.079 35.7329 189.764 35.4662C189.448 35.1995 189.043 35.0217 188.547 34.9773C187.555 34.8884 186.969 34.3106 186.834 33.244C186.789 32.9329 186.744 32.7106 186.609 32.4884C186.586 32.4662 186.564 32.4329 186.541 32.3995C186.519 32.3662 186.496 32.3329 186.474 32.3106L186.428 32.2662C186.158 31.9551 185.797 31.7329 185.347 31.6884H185.302H185.121H185.076H185.031H184.941C184.49 31.6884 184.085 31.8662 183.814 32.1773C183.544 32.4884 183.363 32.844 183.318 33.3329C183.183 34.3995 182.642 34.9773 181.606 35.0662C180.524 35.1551 179.938 35.7329 179.938 36.7551C179.938 37.2884 180.073 37.6884 180.389 37.9551C180.704 38.2217 181.11 38.3995 181.606 38.444C182.597 38.5329 183.183 39.1106 183.318 40.1773C183.363 40.4884 183.409 40.7106 183.544 40.9329C183.566 40.9551 183.589 40.9884 183.611 41.0217C183.634 41.0551 183.656 41.0884 183.679 41.1106L183.724 41.1551C183.995 41.5106 184.355 41.7329 184.806 41.7773H184.851H185.031H185.076H185.121H185.211C185.662 41.7773 186.068 41.5995 186.338 41.2884C186.609 40.9773 186.789 40.6217 186.834 40.1329ZM210.948 40.0884V36.9329V36.444C210.948 36.3934 210.949 36.3441 210.95 36.2959C210.954 35.9198 210.958 35.6137 210.678 35.3773C210.362 35.1106 210.002 34.9329 209.506 34.8884C208.424 34.7551 207.838 34.2217 207.748 33.1995C207.658 32.1329 207.072 31.5551 206.035 31.5551C205.495 31.5551 205.089 31.6884 204.818 31.9995C204.593 32.2217 204.458 32.4884 204.368 32.7995C204.278 32.9773 204.232 33.1551 204.232 33.3329C204.232 33.3773 204.221 33.4329 204.21 33.4884C204.199 33.544 204.187 33.5995 204.187 33.644C203.962 34.3551 203.421 34.7551 202.52 34.8884C201.618 34.7995 201.032 34.3995 200.852 33.644C200.852 33.5773 200.841 33.5106 200.829 33.444C200.818 33.3773 200.807 33.3106 200.807 33.244C200.807 32.9329 200.717 32.6662 200.627 32.444C200.627 32.3551 200.582 32.3106 200.536 32.2662C200.514 32.2217 200.48 32.1884 200.446 32.1551C200.412 32.1217 200.379 32.0884 200.356 32.044C200.176 31.8217 199.905 31.6884 199.59 31.5995H199.545C199.41 31.5551 199.274 31.5551 199.094 31.5551C199.026 31.5551 198.97 31.5662 198.914 31.5773C198.857 31.5884 198.801 31.5995 198.734 31.5995C198.711 31.5995 198.688 31.6106 198.666 31.6217C198.643 31.6329 198.621 31.644 198.598 31.644C198.373 31.6884 198.193 31.8217 198.012 31.9551L197.967 31.9995C197.877 32.0884 197.832 32.1329 197.787 32.2217C197.764 32.2662 197.742 32.2995 197.719 32.3329C197.697 32.3662 197.674 32.3995 197.652 32.444C197.629 32.4662 197.618 32.4995 197.607 32.5329C197.595 32.5662 197.584 32.5995 197.562 32.6217C197.562 32.644 197.55 32.6662 197.539 32.6884C197.528 32.7106 197.517 32.7329 197.517 32.7551C197.471 32.8884 197.426 33.0217 197.426 33.1995C197.336 34.1773 196.75 34.7551 195.669 34.8884C195.616 34.8884 195.578 34.9037 195.547 34.9163C195.526 34.9252 195.507 34.9329 195.488 34.9329C195.466 34.9329 195.432 34.944 195.398 34.9551C195.364 34.9662 195.33 34.9773 195.308 34.9773C195.285 34.9773 195.263 34.9884 195.24 34.9995C195.218 35.0106 195.195 35.0217 195.173 35.0217C195.15 35.044 195.116 35.0551 195.083 35.0662C195.049 35.0773 195.015 35.0884 194.992 35.1106C194.967 35.1361 194.956 35.147 194.942 35.1516C194.933 35.1551 194.921 35.1551 194.902 35.1551C194.902 35.1551 194.902 35.1995 194.857 35.1995C194.812 35.1995 194.767 35.244 194.722 35.2884C194.361 35.5551 194.181 35.8662 194.091 36.2662C194.046 36.3551 194.046 36.3995 194.046 36.4884V36.6217V40.044C194.046 40.9773 194.812 41.7329 195.759 41.7329C196.705 41.7329 197.471 40.9773 197.471 40.044V36.6217V36.5329C197.487 36.4399 197.497 36.3631 197.506 36.2988C197.522 36.1786 197.532 36.1019 197.562 36.044C197.697 35.6884 197.877 35.4217 198.193 35.244C198.418 35.1106 198.688 35.0217 199.004 34.9773C199.094 35.0217 199.184 35.0217 199.274 35.0217C199.545 35.0217 199.815 35.1106 200.086 35.2884C200.356 35.4662 200.536 35.6884 200.672 35.9551L200.717 36.044C200.762 36.1329 200.807 36.2662 200.807 36.3551V38.3995V40.5329L200.942 40.7995C201.122 41.1551 201.393 41.4662 201.798 41.644C201.934 41.6884 202.159 41.7329 202.52 41.7329C202.835 41.7329 203.106 41.6884 203.286 41.5995C203.601 41.4217 203.872 41.1551 204.052 40.7995C204.142 40.6662 204.187 39.8662 204.187 38.444V36.8884C204.232 36.844 204.232 36.7995 204.232 36.7106C204.232 36.3995 204.278 36.1773 204.323 36.0884C204.413 35.8662 204.548 35.644 204.728 35.4662C204.773 35.3773 204.818 35.3329 204.909 35.2884C204.931 35.2662 204.954 35.2551 204.976 35.244C204.999 35.2329 205.021 35.2217 205.044 35.1995C205.269 35.1106 205.54 35.0217 205.81 35.0217C205.855 35.0217 205.911 35.0106 205.968 34.9995C206.024 34.9884 206.08 34.9773 206.126 34.9773C206.531 35.0662 206.847 35.1995 207.117 35.4662C207.343 35.7329 207.523 36.044 207.568 36.444C207.523 36.5329 207.523 36.5773 207.523 36.6662V40.0884C207.523 41.0217 208.289 41.7773 209.236 41.7773C210.182 41.7773 210.948 41.0217 210.948 40.0884Z" fill="white"/>
</g>
<defs>
<clipPath id="clip0_17912_2503">
<rect width="215" height="48" fill="white"/>
</clipPath>
</defs>
</svg>
