<svg width="229" height="52" viewBox="0 0 229 52" fill="none" xmlns="http://www.w3.org/2000/svg">
<g clip-path="url(#clip0_17912_478)">
<path fill-rule="evenodd" clip-rule="evenodd" d="M45.2695 25.1815C44.2613 24.2667 43.0611 23.6889 41.7169 23.5444H40.4207C39.1244 23.5444 38.0683 22.4852 38.0683 21.1852C38.0683 20.6463 38.0779 20.0303 38.0885 19.35V19.3499V19.3497V19.3495V19.3494V19.3491C38.1016 18.51 38.1163 17.5732 38.1163 16.563C38.1163 12.5185 38.0683 10.3037 37.9722 9.96667C37.7322 8.76296 37.1561 7.7037 36.34 6.78889C35.5238 5.77778 34.5156 5.15185 33.3154 4.81482C33.3078 4.81482 33.2783 4.8136 33.2288 4.81155L33.2287 4.81155L33.2287 4.81155C32.9664 4.80072 32.1415 4.76667 31.011 4.76667C29.7148 4.76667 28.6586 3.70741 28.6586 2.40741V2.35926C28.6586 1.05926 27.6024 0 26.3062 0H26.0662C24.7699 0 23.7138 1.05926 23.7138 2.35926C23.7138 3.65926 22.6576 4.71852 21.3613 4.71852H21.1213C19.8251 4.71852 18.7689 3.65926 18.7689 2.35926C18.7689 1.05926 17.7127 0 16.4165 0H16.1764C14.8802 0 13.824 1.05926 13.824 2.35926C13.824 3.65926 12.7678 4.71852 11.4716 4.71852H10.5595C10.4874 4.74259 10.4154 4.75463 10.3434 4.76667C10.2714 4.7787 10.1994 4.79074 10.1274 4.81482H2.7821C2.62301 4.81482 2.46393 4.84786 2.27755 4.88657L2.27755 4.88657C2.23895 4.89459 2.19917 4.90285 2.15799 4.91111C1.38985 5.1037 0.861762 5.58519 0.573712 6.30741C0.477695 6.54815 0.429688 6.83704 0.429688 7.27037C0.429688 7.55926 0.477695 7.8 0.525704 7.99259C0.765746 8.71482 1.24583 9.1963 2.01396 9.43704C2.25401 9.53333 2.49405 9.58148 2.7821 9.58148H5.32655V9.62963L5.13451 10.2074V16.4667V35.437C5.13451 39.4815 5.18252 41.6963 5.27854 42.0333C5.27854 42.1296 5.32655 42.2259 5.37456 42.3222H2.7821C2.7065 42.3475 2.60446 42.3595 2.49679 42.3722H2.49675C2.39929 42.3836 2.29723 42.3956 2.206 42.4185C1.43786 42.6111 0.909771 43.0926 0.621721 43.8148C0.525704 44.0556 0.477695 44.3926 0.477695 44.7778C0.477695 45.0667 0.525704 45.3074 0.573712 45.5C0.813754 46.2222 1.29384 46.7037 2.06197 46.9444C2.30201 47.0407 2.54206 47.0889 2.83011 47.0889H9.98336C9.9921 47.0889 10.0184 47.0905 10.0613 47.0931L10.0617 47.0931C10.2548 47.1049 10.7829 47.137 11.5676 47.137C12.8159 47.137 13.872 48.1963 13.872 49.4481V49.5444C13.872 50.8444 14.8802 51.8556 16.1764 51.8556H16.5125C17.8087 51.8556 18.8169 50.8444 18.8169 49.5444V49.4963C18.8169 48.1963 19.8731 47.1852 21.1213 47.1852H21.4574C22.7056 47.1852 23.7618 48.2444 23.7618 49.4963V49.5444C23.7618 50.8444 24.7699 51.8556 26.0662 51.8556H26.4022C27.6504 51.8556 28.7066 50.8444 28.7066 49.5444C28.7066 48.2444 29.7628 47.2333 31.011 47.2333H35.4278C39.6525 47.2333 41.8609 47.2333 42.101 47.1852C43.8773 46.8963 45.3175 45.9815 46.4217 44.4407C46.8058 43.863 47.1418 43.1407 47.3819 42.2741L47.5739 41.6963V35.437C47.5739 31.2963 47.5259 29.0333 47.4299 28.6481C46.9498 27.2519 46.2777 26.0963 45.2695 25.1815ZM13.632 9.58148H31.6831L32.0672 9.72593C32.5473 9.91852 32.9314 10.3037 33.1714 10.8815L33.3634 11.2667L33.4114 16.4667C33.4114 16.9449 33.4222 17.4555 33.4335 17.9933V17.9935V17.9937V17.9939V17.9942V17.9944L33.4335 17.9948C33.4461 18.5936 33.4595 19.226 33.4595 19.8852V21.1852C33.4595 21.4741 33.4114 21.763 33.3634 21.9556C33.3154 22.1481 33.2674 22.2926 33.2194 22.3407C33.1954 22.3648 33.1714 22.4009 33.1354 22.4551L33.1353 22.4552C33.0993 22.5093 33.0513 22.5815 32.9794 22.6778C32.6913 23.063 32.3073 23.3519 31.8272 23.4963H31.6831C27.4104 23.4963 20.9773 23.4963 16.3685 23.5444H11.6637L11.2796 23.3519C10.7515 23.063 10.3674 22.6778 10.1754 22.1481C10.0794 21.8593 10.0794 19.9333 10.0794 16.4185V11.1704L10.2234 10.8333C10.4634 10.3519 10.8475 9.96667 11.3756 9.72593L11.7597 9.58148H13.632ZM42.485 40.7333L42.341 41.0704C42.101 41.5519 41.7169 41.937 41.1888 42.1778L40.8527 42.3704H13.632H11.5676L11.1836 42.2259C10.7035 42.0333 10.3194 41.6482 10.0794 41.0704L9.88734 40.6852L9.83933 35.4852C9.83933 35.0066 9.82858 34.4957 9.81725 33.9574L9.81725 33.9573V33.9573V33.9572V33.9572L9.81724 33.9571C9.80464 33.3583 9.79133 32.7259 9.79133 32.0667V30.7667C9.79133 30.4778 9.83933 30.1889 9.88734 29.9963C9.93535 29.8037 9.98336 29.6593 10.0314 29.6111C10.0554 29.587 10.0794 29.5509 10.1154 29.4968C10.1514 29.4426 10.1994 29.3704 10.2714 29.2741C10.5595 28.8889 10.9435 28.6 11.4236 28.4556C11.5196 28.4074 32.0192 28.4074 35.6198 28.4074H40.9488L41.3328 28.6C41.8609 28.8889 42.245 29.2741 42.437 29.8037C42.533 30.0444 42.5811 31.9222 42.5811 35.4852L42.485 40.7333ZM148.199 23.6407C148.439 23.737 148.727 23.7852 149.063 23.7852C149.543 23.7852 149.976 23.6407 150.312 23.4C150.696 23.1593 150.936 22.8222 151.128 22.437L151.368 21.9556L151.416 18.9704C151.416 16.9963 151.512 15.8889 151.608 15.6963C151.848 15.1667 152.232 14.8296 152.76 14.5407L153.192 14.3482L160.921 14.3H160.969H161.017H161.065H161.113H161.161H161.209H161.257H161.305H161.354H161.402H161.45H161.498H161.546H161.594H161.642H161.69H161.738H161.786H161.834H161.882H161.93H161.978H162.026H162.074H162.122H162.17H162.218H162.266H162.314H162.362H162.41H162.458H162.506H162.554H162.602H162.65H162.698H162.746H162.794H162.842H162.89H162.938H162.986H163.034H163.082H163.13H163.178H163.226H163.274H163.322H163.37H163.418H163.466H163.514H163.562H163.61H163.658H163.706H163.754H163.802H163.85H163.898H163.946C167.115 14.3 168.987 14.2519 169.515 14.2037C169.995 14.1556 170.379 14.0111 170.571 13.8185L170.715 13.6741C171.003 13.4333 171.195 13.1926 171.291 12.9037L171.483 12.4704V1.82963L171.243 1.3963C170.955 0.818519 170.523 0.385185 169.995 0.192593L168.555 0H158.713C152.136 0 148.727 0 148.535 0.0481482C148.199 0.144444 147.911 0.288889 147.575 0.577778C147.287 0.818519 147.047 1.10741 146.855 1.44444L146.711 1.73333V22.1L146.903 22.4852C147.191 23.063 147.623 23.4482 148.199 23.6407ZM152.952 5.1037L153.336 4.95926H158.569L163.802 5.00741L164.186 5.2C164.714 5.44074 165.098 5.82593 165.338 6.35556C165.434 6.5 165.482 6.83704 165.482 7.31852C165.482 8.28148 165.05 9.00371 164.186 9.43704L163.754 9.62963H158.425L153.096 9.58148L152.76 9.38889C151.944 8.95556 151.512 8.23334 151.512 7.27037C151.464 6.21111 151.944 5.48889 152.952 5.1037ZM111.714 1.10809C111.426 0.722904 111.09 0.385865 110.61 0.241421L110.274 0.0969765L100.432 0.0488281C93.9026 0.0488281 90.494 0.0488281 90.302 0.0969765C89.5339 0.241421 88.9578 0.722904 88.6697 1.39698L88.4777 1.78216L88.4297 11.8933V21.9562L88.5737 22.3414C88.7177 22.7266 89.0058 23.1118 89.3899 23.4007C89.7739 23.6896 90.254 23.834 90.7341 23.834C91.0702 23.834 91.4062 23.7377 91.7903 23.5933C92.5104 23.2081 92.9425 22.6303 93.0865 21.8118C93.1345 21.5229 93.1345 20.5599 93.1345 18.8748C93.1345 17.1414 93.1825 16.1303 93.2785 15.8896C93.4706 15.3118 93.8546 14.8785 94.4787 14.5896L94.8628 14.397H100.816L101.2 14.5896C101.728 14.8785 102.16 15.2637 102.352 15.8896C102.448 16.1785 102.496 16.4192 102.544 16.7562C102.688 18.2007 103.456 18.9711 104.897 19.1155C106.289 19.26 107.105 20.0303 107.249 21.4266C107.393 22.4859 107.825 23.2081 108.641 23.5933C108.881 23.6896 109.217 23.7377 109.697 23.7377C110.225 23.7377 110.61 23.6896 110.85 23.5451C111.714 23.0637 112.146 22.3414 112.146 21.3785C112.146 20.56 111.81 19.934 111.186 19.5007C110.898 19.26 110.37 19.1155 109.649 19.0192C108.977 18.9711 108.449 18.7303 108.017 18.297C107.585 17.8637 107.345 17.2859 107.345 16.66C107.345 16.034 107.585 15.4562 108.017 15.0229C108.401 14.6377 108.977 14.397 109.745 14.3007C110.898 14.1562 111.666 13.6748 112.002 12.8081C112.098 12.5192 112.146 10.5933 112.146 7.12662V5.24884C112.146 3.37105 112.146 2.31179 112.098 1.92661C112.082 1.88755 112.067 1.84723 112.051 1.80584L112.051 1.80581C111.968 1.59211 111.875 1.3501 111.714 1.10809ZM107.009 8.33032C106.721 8.9081 106.289 9.34143 105.713 9.53402C105.473 9.63032 103.6 9.67847 100.048 9.67847L94.7668 9.63032L94.4307 9.43773C93.5666 9.05254 93.1345 8.33032 93.1345 7.36736C93.1345 6.88588 93.1825 6.54884 93.3265 6.3081C93.5666 5.82662 93.8546 5.48958 94.2387 5.24884C94.4787 5.10439 94.7668 5.0081 95.1029 5.0081C95.4389 4.95995 96.4471 4.95995 98.0794 4.95995H100.288L105.521 5.0081L105.809 5.15254C106.337 5.44143 106.673 5.77847 106.961 6.25995C107.105 6.54884 107.153 6.88588 107.153 7.31921C107.201 7.70439 107.153 8.04143 107.009 8.33032ZM81.5628 4.86372C82.475 4.4304 82.907 3.70817 82.907 2.64891C82.907 2.02299 82.715 1.44521 82.2829 0.963728C82.0429 0.722987 81.8028 0.578543 81.5628 0.4341L81.1307 0.193359H71.049H64.0878C61.9274 0.193359 60.7272 0.241508 60.6312 0.289656C59.959 0.482246 59.479 0.963728 59.1909 1.68595L59.0469 2.07114V22.1489L59.1909 22.5341C59.2869 22.823 59.479 23.0637 59.719 23.3526C60.007 23.6415 60.2471 23.7859 60.5351 23.8822L60.9192 24.0267L71.001 23.9785C77.6741 23.9785 81.1787 23.9304 81.4188 23.8341C81.6108 23.7378 81.8509 23.5933 82.0909 23.3526C82.3309 23.1119 82.523 22.9193 82.619 22.6785C82.811 22.3415 82.907 21.9563 82.907 21.5711C82.907 20.56 82.427 19.8378 81.5148 19.4045L81.0827 19.2119H65.72L65.24 19.0193C64.6639 18.7304 64.2798 18.2971 64.0397 17.7674L63.8957 17.3822V7.03038L64.0397 6.6452C64.2798 6.01927 64.6639 5.58594 65.24 5.3452L65.624 5.15261C66.3399 5.15261 67.1958 5.14435 68.1986 5.13467C69.6167 5.12098 71.3285 5.10446 73.3534 5.10446C76.762 5.10446 79.3544 5.10446 81.0827 5.05631L81.5628 4.86372ZM117.715 23.4007C117.667 23.3044 117.667 23.2563 117.667 23.2081C117.667 23.16 117.667 23.0637 117.523 22.9674V22.6785V22.3414V21.5229C117.523 20.4155 117.571 19.8377 117.667 19.6933C117.715 19.5488 117.811 19.4525 117.956 19.3562C118.1 19.26 120.116 19.2118 124.101 19.2118H128.853C133.414 19.2118 135.767 19.1637 135.911 19.0192C136.005 18.9563 136.078 18.8728 136.158 18.7823C136.201 18.7342 136.245 18.6841 136.295 18.634C136.391 18.4896 136.439 18.2007 136.439 17.8637V17.3822V16.7081L136.391 15.0229L136.199 14.8303C136.055 14.6859 135.863 14.5896 135.671 14.5414C135.191 14.4933 133.318 14.4451 130.054 14.4451H126.981H124.149C121.124 14.4451 119.348 14.4451 118.772 14.397C118.196 14.3488 117.859 14.2525 117.763 14.06C117.763 14.0118 117.715 13.9637 117.715 13.9637L117.571 13.7229L117.523 7.27106V3.70809C117.523 1.78216 117.571 0.722904 117.667 0.57846C117.696 0.549344 117.726 0.515826 117.757 0.479238L117.757 0.479088C117.83 0.394696 117.918 0.293984 118.052 0.193273C118.244 0.0969765 118.484 0.0488281 118.868 0.0488281H119.348H120.02C120.355 0.0656132 120.643 0.0765468 120.884 0.0857087C121.335 0.102828 121.623 0.113761 121.748 0.145125C121.94 0.193273 122.084 0.337717 122.228 0.57846C122.324 0.722904 122.42 1.05994 122.42 1.49327C122.468 1.92654 122.468 3.12993 122.468 5.10345V5.1044C122.468 7.5118 122.468 8.76366 122.516 8.9081C122.612 9.34143 122.9 9.58217 123.38 9.67847C123.476 9.72662 125.589 9.72662 129.718 9.72662H132.262C134.566 9.72662 135.815 9.67847 135.911 9.58217C136.055 9.48588 136.151 9.38958 136.247 9.24514C136.343 9.14884 136.391 8.13773 136.391 6.16366V4.18957C136.391 2.0229 136.439 0.867349 136.583 0.626608C136.631 0.530312 136.775 0.385865 136.967 0.241421C137.111 0.145125 137.735 0.0969765 138.791 0.0969765H139.943C140.183 0.0969765 140.375 0.145125 140.567 0.193273C140.759 0.241421 140.904 0.289569 140.904 0.337717C140.952 0.385865 141.048 0.482162 141.192 0.722904V23.3044L141.048 23.497C141.048 23.5211 141.036 23.5331 141.024 23.5451C141.012 23.5572 141 23.5692 141 23.5933C140.904 23.7859 140.519 23.8822 139.799 23.9303C139.079 23.9785 136.823 23.9785 132.982 23.9785H129.333L118.244 23.9303C118.244 23.9303 118.148 23.8822 118.1 23.834C118.004 23.7859 117.956 23.7377 117.956 23.7377C117.956 23.708 117.937 23.6966 117.912 23.6809C117.904 23.676 117.895 23.6707 117.886 23.6642C117.878 23.6579 117.869 23.6505 117.86 23.6414L117.763 23.5451C117.763 23.497 117.763 23.4488 117.715 23.4007ZM177.629 4.95869L177.245 4.76607C176.381 4.28459 175.901 3.56237 175.949 2.50311C175.949 2.11793 175.997 1.82904 176.093 1.5883C176.333 0.914221 176.861 0.43274 177.581 0.191999C177.773 0.143851 181.182 0.0957031 187.807 0.0957031H194.144C196.592 0.0957031 197.936 0.143851 198.128 0.240148C198.657 0.43274 199.089 0.817925 199.377 1.34755C199.569 1.68459 199.665 2.11793 199.665 2.50311C199.665 3.56237 199.233 4.33274 198.321 4.76607L197.936 4.95869L194.96 5.00684C192.944 5.05499 191.791 5.10313 191.551 5.19943C191.023 5.44017 190.591 5.82536 190.351 6.35499C190.159 6.74017 190.063 7.89573 190.063 9.91795C190.063 10.805 190.076 11.6386 190.089 12.426V12.4266V12.4272V12.4278V12.4284V12.4289V12.4294V12.4299V12.4304V12.4308V12.4312V12.4316V12.432V12.4323V12.4327V12.4329V12.4331V12.4332V12.4334V12.4335V12.4337V12.4338V12.434V12.4341V12.4342C190.1 13.1396 190.111 13.8078 190.111 14.4439V17.9105C190.111 19.9286 190.08 21.1333 190.068 21.6004V21.6009L190.068 21.6022L190.067 21.6152C190.065 21.7189 190.063 21.7837 190.063 21.8105C189.919 22.4364 189.631 22.918 189.247 23.3031C188.863 23.6883 188.335 23.8809 187.711 23.8809C186.702 23.8809 185.934 23.4476 185.502 22.4846L185.358 22.1957C185.31 20.5105 185.31 17.9587 185.31 14.5402C185.31 12.5461 185.294 10.8469 185.28 9.43298V9.4308V9.42897V9.42744C185.271 8.41988 185.262 7.55738 185.262 6.83647L185.07 6.45128C184.83 5.92165 184.398 5.53647 183.87 5.24758L183.486 5.05499C182.814 5.00684 181.854 5.00684 180.557 5.00684C179.804 5.00684 179.164 4.99056 178.628 4.97694C178.242 4.96713 177.91 4.95869 177.629 4.95869ZM228.709 5.29624C228.373 3.89997 227.701 2.74441 226.693 1.82959C225.685 0.91478 224.485 0.337002 223.14 0.192557C222.9 0.144409 220.836 0.144409 216.995 0.144409C213.155 0.144409 211.09 0.144409 210.85 0.192557C208.882 0.481447 207.394 1.39626 206.289 2.98515C205.809 3.65922 205.473 4.57404 205.329 5.68142C205.281 5.82587 205.281 7.99253 205.281 12.0851C205.281 16.1296 205.329 18.3444 205.425 18.6814C205.713 19.8851 206.241 20.9444 207.058 21.8592C207.874 22.7741 208.93 23.3999 210.13 23.737C210.418 23.8333 212.675 23.8814 216.899 23.8814H216.9C221.124 23.8814 223.332 23.8814 223.572 23.8333C225.349 23.5444 226.789 22.6296 227.893 21.0888C228.277 20.5111 228.613 19.7888 228.853 18.9222L229.045 18.3444V12.0851C228.976 10.6039 228.925 9.35606 228.884 8.3484L228.884 8.34258L228.884 8.34173C228.812 6.56933 228.771 5.54171 228.709 5.29624ZM223.908 17.4296L223.764 17.7667C223.524 18.2481 223.14 18.6333 222.612 18.8741L222.228 19.0185H211.57L211.186 18.8741C210.706 18.6815 210.322 18.2962 210.082 17.7185L209.89 17.3333L209.842 12.1333C209.842 11.6552 209.831 11.1447 209.82 10.607L209.82 10.6056V10.6047V10.6037V10.6027L209.82 10.6016C209.807 10.0039 209.794 9.37261 209.794 8.71476V7.41476C209.794 7.12587 209.842 6.83698 209.89 6.64439C209.938 6.45179 209.986 6.30735 210.034 6.2592C210.058 6.23512 210.082 6.199 210.118 6.14482L210.118 6.14466L210.118 6.1445L210.118 6.14436L210.119 6.14388C210.155 6.08982 210.203 6.01788 210.274 5.92216C210.562 5.53698 210.946 5.24809 211.426 5.10365C211.44 5.10365 211.487 5.1027 211.569 5.10107C212.07 5.09108 213.852 5.0555 216.947 5.0555H222.276L222.66 5.24809C223.188 5.53698 223.572 5.92216 223.764 6.45179C223.86 6.69253 223.908 8.57036 223.908 12.1333V17.4296ZM80.9878 37.7474C81.2279 37.7956 81.4679 37.8918 81.756 38.0844C82.188 38.3733 82.5241 38.8066 82.6681 39.3363C82.7641 39.6733 82.8122 40.5882 82.8122 42.1289V44.9215L82.7641 50.0733L82.6201 50.4585C82.3321 50.9882 81.996 51.3733 81.4679 51.6141L81.0359 51.8067H60.6323L60.3442 51.6622C59.8161 51.4215 59.4321 51.0363 59.192 50.5548L59 50.1696V29.7067L59.192 29.3215C59.5281 28.7437 59.9602 28.3104 60.5843 28.1178C60.7763 28.0696 64.2329 28.0215 70.9541 28.0215L81.0839 28.0696L81.5159 28.2622C81.996 28.5511 82.3321 28.9363 82.5721 29.4177C82.6681 29.6585 82.7161 29.9955 82.7161 30.477C82.7161 31.5844 82.2361 32.3548 81.3239 32.7881L80.9398 32.9326L73.1145 32.9807L65.3371 33.0288L65.0491 33.1733C64.3769 33.5104 63.9449 34.04 63.7528 34.7622C63.7048 35.0029 63.6568 36.8325 63.6568 40.2511V45.3548L63.8488 45.74C64.1369 46.2696 64.521 46.703 65.0491 46.9437L65.4811 47.1363H70.57H73.5465C74.7948 47.1363 75.5629 47.1363 75.899 47.0882C76.187 47.04 76.4751 46.9437 76.7151 46.7992C77.4832 46.3177 77.8673 45.6437 77.8673 44.8251C77.8673 44.6195 77.8323 44.4491 77.7922 44.2537L77.7832 44.2102L77.7713 44.1511C77.4832 43.14 76.7151 42.5622 75.4669 42.4177C74.9868 42.3696 74.6507 42.3214 74.5067 42.2251C74.1706 42.0807 73.8346 41.7919 73.5946 41.4067C73.3545 41.0215 73.2105 40.5882 73.2105 40.1067C73.2105 39.7696 73.2585 39.4807 73.3545 39.24C73.5946 38.6622 73.9786 38.2289 74.5067 37.94L74.8908 37.7474L77.8193 37.6993H79.2595C80.1717 37.6993 80.7478 37.6993 80.9878 37.7474ZM94.5313 33.2222L94.8673 33.0296L102.549 32.9814L110.278 32.9333L110.662 32.7407C110.773 32.7036 110.941 32.5807 111.166 32.4161C111.233 32.3671 111.305 32.3144 111.382 32.2592C111.862 31.8259 112.102 31.2481 112.102 30.5259C112.102 29.6111 111.766 28.937 111.046 28.4555C110.758 28.2629 110.326 28.1185 109.75 28.1185C109.174 28.0704 107.157 28.0703 103.701 28.0703H100.1C93.4271 28.0703 90.0185 28.1185 89.8265 28.1666C89.2024 28.4074 88.7703 28.7925 88.4342 29.3703L88.2422 29.7555V50.2185L88.4342 50.6036C88.7223 51.1333 89.1544 51.5185 89.7305 51.7592C89.9225 51.8555 90.4506 51.9036 91.3147 51.9036H100.244L110.374 51.8555L110.662 51.7111C111.574 51.2777 112.006 50.5555 112.006 49.5444C112.006 49.2555 112.006 49.0629 111.958 48.9666C111.766 48.1962 111.286 47.6667 110.566 47.3296C110.422 47.2815 107.782 47.2333 102.645 47.1851L94.9154 47.137L94.5313 46.9444C94.0512 46.7036 93.6671 46.3667 93.3791 45.8852C93.2351 45.5963 93.187 45.2592 93.187 44.8259C93.187 44.3925 93.2351 44.0555 93.3791 43.8148C93.6671 43.2851 94.0512 42.8999 94.5313 42.6592L95.0114 42.4666C95.2927 42.4666 95.6246 42.4582 96.0105 42.4484C96.5463 42.4347 97.1863 42.4185 97.9399 42.4185C99.2361 42.4185 100.244 42.4185 100.868 42.3703L101.252 42.1777C101.781 41.937 102.165 41.5518 102.405 41.0222C102.501 40.8777 102.549 40.5407 102.549 40.0592C102.549 39.6259 102.501 39.2407 102.357 38.9999C102.117 38.5185 101.733 38.1333 101.204 37.9407L100.82 37.7481C100.539 37.7481 100.207 37.7397 99.8213 37.7299C99.2855 37.7163 98.6455 37.7 97.8919 37.7C96.5956 37.7 95.5875 37.6999 94.9154 37.6518L94.5313 37.4593C94.0512 37.2185 93.6671 36.8814 93.3791 36.3999C93.2351 36.1111 93.187 35.7741 93.187 35.3407C93.187 34.8592 93.2351 34.5222 93.3791 34.2814C93.6191 33.8962 94.0032 33.5111 94.5313 33.2222ZM124.149 33.0296L123.813 33.2222C123.284 33.5111 122.9 33.8962 122.66 34.2814C122.516 34.5222 122.468 34.8592 122.468 35.3407C122.468 35.7741 122.516 36.1111 122.66 36.3999C122.948 36.8814 123.332 37.2185 123.813 37.4593L124.197 37.6518C124.869 37.6999 125.877 37.7 127.173 37.7C127.927 37.7 128.567 37.7163 129.103 37.7299C129.488 37.7397 129.82 37.7481 130.102 37.7481L130.486 37.9407C131.014 38.1333 131.35 38.5185 131.638 38.9999C131.782 39.2407 131.83 39.6259 131.83 40.0592C131.83 40.5407 131.782 40.8777 131.686 41.0222C131.446 41.5518 131.062 41.937 130.534 42.1777L130.15 42.3703C129.526 42.4185 128.517 42.4185 127.221 42.4185C126.468 42.4185 125.828 42.4347 125.292 42.4484C124.906 42.4582 124.574 42.4666 124.293 42.4666L123.813 42.6592C123.332 42.8999 122.948 43.2851 122.66 43.8148C122.516 44.0555 122.468 44.3925 122.468 44.8259C122.468 45.2592 122.516 45.5963 122.66 45.8852C122.948 46.3667 123.332 46.7036 123.813 46.9444L124.197 47.137L131.926 47.1851C137.063 47.2333 139.703 47.2815 139.847 47.3296C140.567 47.6667 141.048 48.1962 141.24 48.9666C141.288 49.0629 141.288 49.2555 141.288 49.5444C141.288 50.5555 140.856 51.2777 139.943 51.7111L139.655 51.8555L129.526 51.9036H120.596C119.732 51.9036 119.204 51.8555 119.012 51.7592C118.436 51.5185 118.004 51.1333 117.715 50.6036L117.523 50.2185V29.7555L117.715 29.3703C118.052 28.7925 118.484 28.4074 119.108 28.1666C119.3 28.1185 122.708 28.0703 129.382 28.0703H132.982C136.439 28.0703 138.455 28.0704 139.031 28.1185C139.607 28.1185 140.039 28.2629 140.327 28.4555C141.048 28.937 141.384 29.6111 141.384 30.5259C141.384 31.2481 141.144 31.8259 140.663 32.2592C140.586 32.3144 140.514 32.3671 140.447 32.4161L140.447 32.4162C140.222 32.5807 140.054 32.7036 139.943 32.7407L139.559 32.9333L131.83 32.9814L124.149 33.0296ZM168.316 27.8301C167.932 27.8301 167.692 27.8301 167.644 27.8783C166.827 28.1672 166.299 28.6486 166.011 29.3708C165.915 29.5634 165.867 29.8523 165.867 30.2375C165.867 30.7671 165.915 31.1523 166.059 31.393C166.299 31.9227 166.683 32.2597 167.211 32.5486C167.499 32.693 167.836 32.7412 168.22 32.7412C169.276 32.7412 169.996 32.3079 170.38 31.393C170.524 31.1523 170.572 30.7672 170.572 30.2857C170.572 29.8042 170.524 29.4672 170.38 29.2264C169.996 28.3116 169.324 27.8782 168.316 27.8301ZM167.715 46.9682C167.901 46.9295 168.061 46.8965 168.22 46.8965C168.844 46.8965 169.42 47.1372 169.852 47.5706C170.332 48.0039 170.572 48.5817 170.572 49.3039C170.572 50.315 170.092 51.0372 169.18 51.4706C168.94 51.615 168.604 51.6632 168.22 51.6632C167.932 51.6632 167.691 51.615 167.451 51.5187C166.683 51.278 166.203 50.7965 165.963 50.0743C165.915 49.8817 165.867 49.6409 165.867 49.352C165.867 48.9187 165.915 48.6298 166.011 48.3891C166.299 47.6669 166.827 47.1854 167.595 46.9928L167.663 46.9791L167.715 46.9682ZM217.001 9.58203C216.842 9.58203 216.683 9.61507 216.496 9.65378C216.458 9.6618 216.418 9.67006 216.377 9.67833C215.609 9.87092 215.081 10.3524 214.792 11.0746C214.696 11.3154 214.648 11.6043 214.648 12.0376C214.648 12.3265 214.696 12.5672 214.744 12.7598C214.984 13.482 215.465 13.9635 216.233 14.2043C216.473 14.3005 216.713 14.3487 217.001 14.3487C217.385 14.3487 217.721 14.3005 217.961 14.1561C218.873 13.7228 219.353 13.0005 219.353 11.9894C219.353 11.2672 219.113 10.6894 218.633 10.2561C218.201 9.82277 217.625 9.58203 217.001 9.58203ZM74.0268 11.0746C74.3149 10.3524 74.843 9.87092 75.6111 9.67833C75.8032 9.63018 76.0432 9.58203 76.2352 9.58203C76.8593 9.58203 77.3874 9.82277 77.8675 10.2561C78.3476 10.6894 78.5876 11.2672 78.5876 11.9894C78.5876 13.0005 78.1076 13.7228 77.1954 14.1561C76.9554 14.3005 76.6193 14.3487 76.2352 14.3487C75.9472 14.3487 75.7071 14.3005 75.4671 14.2043C74.699 13.9635 74.2189 13.482 73.9788 12.7598C73.9308 12.5672 73.8828 12.3265 73.8828 12.0376C73.8828 11.6043 73.9308 11.3154 74.0268 11.0746ZM26.1649 18.5851C25.8769 18.5851 25.6368 18.537 25.3968 18.4407C24.6767 18.1999 24.1966 17.7184 23.9085 16.9962C23.8605 16.8036 23.8125 16.5629 23.8125 16.274C23.8125 15.8407 23.8605 15.5518 23.9565 15.311C24.2446 14.5888 24.7727 14.1074 25.5408 13.9148C25.5819 13.9065 25.6217 13.8983 25.6602 13.8903L25.6603 13.8902L25.6604 13.8902C25.8467 13.8515 26.0058 13.8185 26.1649 13.8185C26.789 13.8185 27.3171 14.0592 27.7972 14.4926C28.2773 14.9259 28.5173 15.5037 28.5173 16.2259C28.5173 17.237 28.0372 17.9592 27.1251 18.3926C26.885 18.537 26.549 18.5851 26.1649 18.5851ZM16.0843 18.4407C16.3243 18.537 16.5644 18.5851 16.8524 18.5851C17.2365 18.5851 17.5725 18.537 17.8126 18.3926C18.7247 17.9592 19.2048 17.237 19.2048 16.2259C19.2048 15.5037 18.9648 14.9259 18.4847 14.4926C18.0046 14.0592 17.4765 13.8185 16.8524 13.8185C16.6933 13.8185 16.5342 13.8515 16.3479 13.8902L16.3478 13.8902L16.3478 13.8903C16.3092 13.8983 16.2695 13.9065 16.2283 13.9148C15.4602 14.1074 14.9321 14.5888 14.644 15.311C14.548 15.5518 14.5 15.8407 14.5 16.274C14.5 16.5629 14.548 16.8036 14.596 16.9962C14.8361 17.7184 15.3161 18.1999 16.0843 18.4407ZM161.787 41.5034C162.219 41.9368 162.795 42.1293 163.515 42.1775C164.187 42.2256 164.763 42.4664 165.099 42.8516C165.531 43.285 165.723 43.8627 165.723 44.5368C165.723 45.259 165.531 45.8368 165.099 46.2701C164.667 46.7034 164.091 46.8961 163.419 46.8961C162.747 46.8961 162.171 46.6553 161.739 46.2701C161.307 45.8368 161.067 45.3071 161.019 44.6331C160.923 43.6701 160.635 43.0442 160.106 42.659C159.866 42.4182 159.578 42.322 159.242 42.2738C158.906 42.2257 157.946 42.2256 156.314 42.2256H153.337L153.001 42.3701C152.473 42.6109 152.089 42.9961 151.849 43.5257L151.657 43.9108C151.609 44.5849 151.609 45.5961 151.609 46.9442C151.609 47.7339 151.592 48.4245 151.579 48.9966L151.579 48.9982C151.569 49.4021 151.561 49.7468 151.561 50.0257L151.369 50.4109C151.129 50.9405 150.745 51.3257 150.265 51.5664C150.025 51.7109 149.641 51.759 149.112 51.759C148.632 51.759 148.248 51.7109 147.96 51.5664C147.48 51.3257 147.144 50.9405 146.856 50.4109L146.664 50.0257V29.5627L146.808 29.2257C147.096 28.5998 147.576 28.1664 148.248 27.9257C148.536 27.8294 148.776 27.7812 149.064 27.7812C149.593 27.7812 150.025 27.9256 150.457 28.2145C150.889 28.5034 151.177 28.7923 151.369 29.1775L151.561 29.5627C151.609 30.2366 151.609 31.2472 151.609 32.5947V32.596C151.609 33.385 151.625 34.0751 151.639 34.6469V34.6473L151.639 34.6484C151.649 35.053 151.657 35.3983 151.657 35.6775L151.849 36.0627C152.089 36.5924 152.473 36.9775 152.953 37.2183L153.385 37.4108L156.314 37.459C158.282 37.459 159.386 37.4109 159.626 37.3146C160.442 36.9775 160.923 36.2553 161.067 35.0998C161.115 34.0887 161.547 33.4145 162.267 33.0294C162.603 32.8849 162.939 32.7886 163.323 32.7886C164.235 32.7886 164.907 33.1738 165.339 33.9923C165.531 34.3293 165.627 34.6664 165.627 35.0516C165.627 35.7257 165.435 36.2553 165.003 36.7368C164.571 37.1701 164.043 37.4109 163.323 37.459C162.315 37.6035 161.643 38.0368 161.307 38.8071C161.211 39.0479 161.163 39.385 161.163 39.8664C161.163 40.5405 161.403 41.1182 161.787 41.5034ZM197.792 38.0846C197.696 38.0364 197.456 37.9883 197.12 37.9883H197.072C196.592 38.0364 196.16 38.1809 195.872 38.5179C195.536 38.8549 195.392 39.2401 195.344 39.6735V39.7698C195.344 40.1549 195.44 40.5401 195.68 40.829C195.872 41.1661 196.16 41.3587 196.544 41.5031C196.64 41.5512 196.88 41.5994 197.216 41.5994H197.264C197.744 41.5512 198.176 41.4068 198.464 41.0698C198.8 40.7327 198.944 40.3475 198.992 39.9142V39.8179C198.992 39.4327 198.896 39.0475 198.656 38.7587C198.464 38.3735 198.176 38.1809 197.792 38.0846ZM223.143 28.1673C224.487 28.3117 225.688 28.8895 226.696 29.8043C227.704 30.7191 228.376 31.8747 228.904 33.271C229 33.6562 229.048 35.9191 229.048 40.0599V46.3191L228.856 46.8969C228.616 47.7636 228.28 48.4858 227.896 49.0636C226.792 50.6043 225.351 51.5191 223.575 51.808C223.335 51.8562 191.89 51.8562 187.665 51.8562C183.44 51.8562 181.184 51.808 180.896 51.7117C179.696 51.3747 178.639 50.7488 177.823 49.834C177.007 48.9191 176.431 47.8599 176.191 46.6562C176.095 46.3191 176.047 44.1043 176.047 40.0599C176.047 35.9673 176.047 33.8006 176.095 33.6562C176.239 32.5488 176.575 31.634 177.055 30.9599C178.159 29.371 179.648 28.4562 181.616 28.1673C181.856 28.1191 183.92 28.1191 187.761 28.1191C191.602 28.1191 222.903 28.1191 223.143 28.1673ZM185.505 41.5043C185.12 41.3599 184.832 41.1673 184.64 40.8303C184.4 40.4932 184.304 40.1562 184.304 39.6747V39.5784C184.352 39.1451 184.496 38.7599 184.832 38.4228C185.12 38.0858 185.553 37.9414 186.033 37.8932C186.267 37.8639 186.43 37.8345 186.532 37.8161C186.597 37.8043 186.638 37.7969 186.657 37.7969C187.041 37.6525 187.329 37.4599 187.569 37.1228C187.809 36.7858 187.953 36.4488 187.953 36.0636C187.953 36.0154 187.953 35.871 187.905 35.7265C187.809 35.1006 187.473 34.6673 186.945 34.4265C186.849 34.3784 186.657 34.3302 186.417 34.2821H186.033C185.553 34.2821 185.12 34.4747 184.832 34.8117C184.544 35.1488 184.352 35.534 184.304 36.0636C184.16 37.2191 183.584 37.8451 182.48 37.9414C181.328 38.0377 180.704 38.6636 180.704 39.771C180.704 40.3488 180.848 40.7821 181.184 41.071C181.52 41.3599 181.952 41.5525 182.48 41.6006C183.536 41.6969 184.16 42.3228 184.304 43.4784C184.352 43.8154 184.4 44.0562 184.544 44.2969C184.88 44.9228 185.409 45.2599 186.129 45.2599C186.369 45.2599 186.609 45.2117 186.849 45.1154C187.569 44.7784 187.905 44.2006 187.905 43.4302C187.905 42.9006 187.713 42.4673 187.377 42.1302C187.089 41.8414 186.705 41.6488 186.177 41.6006C185.841 41.6006 185.601 41.5525 185.505 41.5043ZM198.995 43.4784C199.139 42.3228 199.715 41.6969 200.819 41.6006C202.019 41.5043 202.644 40.8784 202.596 39.7228C202.596 39.1451 202.451 38.7117 202.115 38.4228C201.779 38.134 201.347 37.9414 200.819 37.8932C199.763 37.7969 199.139 37.171 198.995 36.0154C198.947 35.6784 198.899 35.4377 198.755 35.1969C198.731 35.1728 198.707 35.1367 198.683 35.1006C198.659 35.0645 198.635 35.0284 198.611 35.0043L198.563 34.9562C198.275 34.6191 197.891 34.3784 197.411 34.3303H197.363H197.171H197.123H197.075H196.979C196.498 34.3303 196.066 34.5228 195.778 34.8599C195.49 35.1969 195.298 35.5821 195.25 36.1117C195.106 37.2673 194.53 37.8932 193.426 37.9895C192.274 38.0858 191.65 38.7117 191.65 39.8191C191.65 40.3969 191.794 40.8302 192.13 41.1191C192.466 41.408 192.898 41.6006 193.426 41.6488C194.482 41.7451 195.106 42.371 195.25 43.5265C195.298 43.8636 195.346 44.1043 195.49 44.3451C195.514 44.3691 195.538 44.4052 195.562 44.4413C195.586 44.4775 195.61 44.5136 195.634 44.5377L195.682 44.5858C195.97 44.971 196.354 45.2117 196.835 45.2599H196.883H197.075H197.123H197.171H197.267C197.747 45.2599 198.179 45.0673 198.467 44.7303C198.755 44.3932 198.947 44.008 198.995 43.4784ZM224.679 43.4302V40.0117V39.4821C224.679 39.4274 224.68 39.3739 224.681 39.3216C224.685 38.9143 224.689 38.5826 224.391 38.3265C224.055 38.0377 223.671 37.8451 223.143 37.7969C221.991 37.6525 221.367 37.0747 221.271 35.9673C221.175 34.8117 220.551 34.1858 219.446 34.1858C218.87 34.1858 218.438 34.3302 218.15 34.6673C217.91 34.908 217.766 35.1969 217.67 35.534C217.574 35.7265 217.526 35.9191 217.526 36.1117C217.526 36.1599 217.514 36.2201 217.502 36.2802C217.49 36.3404 217.478 36.4006 217.478 36.4488C217.238 37.2191 216.662 37.6525 215.702 37.7969C214.742 37.7006 214.118 37.2673 213.925 36.4488C213.925 36.3765 213.913 36.3043 213.901 36.2321C213.889 36.1599 213.877 36.0877 213.877 36.0154C213.877 35.6784 213.781 35.3895 213.685 35.1488C213.685 35.0525 213.637 35.0043 213.589 34.9562C213.565 34.908 213.529 34.8719 213.493 34.8358C213.457 34.7997 213.421 34.7636 213.397 34.7154C213.205 34.4747 212.917 34.3302 212.581 34.234H212.533C212.389 34.1858 212.245 34.1858 212.053 34.1858C211.981 34.1858 211.921 34.1978 211.861 34.2099C211.801 34.2219 211.741 34.234 211.669 34.234C211.645 34.234 211.621 34.246 211.597 34.258C211.573 34.2701 211.549 34.2821 211.525 34.2821C211.285 34.3302 211.093 34.4747 210.901 34.6191L210.853 34.6673C210.757 34.7636 210.709 34.8117 210.661 34.908C210.637 34.9562 210.613 34.9923 210.589 35.0284C210.565 35.0645 210.541 35.1006 210.517 35.1488C210.493 35.1728 210.481 35.209 210.469 35.2451C210.457 35.2812 210.445 35.3173 210.421 35.3414C210.421 35.3654 210.409 35.3895 210.397 35.4136C210.385 35.4377 210.373 35.4617 210.373 35.4858C210.325 35.6302 210.277 35.7747 210.277 35.9673C210.181 37.0265 209.557 37.6525 208.405 37.7969C208.348 37.7969 208.309 37.8134 208.276 37.8271C208.252 37.8368 208.232 37.8451 208.212 37.8451C208.188 37.8451 208.152 37.8571 208.116 37.8691C208.08 37.8812 208.044 37.8932 208.02 37.8932C207.996 37.8932 207.972 37.9053 207.948 37.9173C207.924 37.9293 207.9 37.9414 207.876 37.9414C207.852 37.9654 207.816 37.9775 207.78 37.9895C207.744 38.0015 207.708 38.0136 207.684 38.0377C207.636 38.0858 207.636 38.0858 207.588 38.0858C207.588 38.0858 207.588 38.134 207.54 38.134C207.492 38.134 207.444 38.1821 207.396 38.2303C207.012 38.5191 206.82 38.8562 206.724 39.2895C206.676 39.3858 206.676 39.434 206.676 39.5303V39.6747V43.3821C206.676 44.3932 207.492 45.2117 208.501 45.2117C209.509 45.2117 210.325 44.3932 210.325 43.3821V39.6747V39.5784C210.342 39.4776 210.353 39.3944 210.362 39.3247C210.379 39.1946 210.39 39.1115 210.421 39.0488C210.565 38.6636 210.757 38.3747 211.093 38.1821C211.333 38.0377 211.621 37.9414 211.957 37.8932C212.053 37.9414 212.149 37.9414 212.245 37.9414C212.533 37.9414 212.821 38.0377 213.109 38.2303C213.397 38.4228 213.589 38.6636 213.733 38.9525L213.781 39.0488C213.829 39.1451 213.877 39.2895 213.877 39.3858V41.6006V43.9117L214.021 44.2006C214.214 44.5858 214.502 44.9228 214.934 45.1154C215.078 45.1636 215.318 45.2117 215.702 45.2117C216.038 45.2117 216.326 45.1636 216.518 45.0673C216.854 44.8747 217.142 44.5858 217.334 44.2006C217.43 44.0562 217.478 43.1895 217.478 41.6488V39.9636C217.526 39.9154 217.526 39.8673 217.526 39.771C217.526 39.434 217.574 39.1932 217.622 39.0969C217.718 38.8562 217.862 38.6154 218.054 38.4228C218.102 38.3265 218.15 38.2784 218.246 38.2303C218.27 38.2062 218.294 38.1941 218.318 38.1821C218.342 38.1701 218.366 38.158 218.39 38.134C218.63 38.0377 218.918 37.9414 219.206 37.9414C219.254 37.9414 219.314 37.9293 219.374 37.9173C219.434 37.9053 219.494 37.8932 219.542 37.8932C219.975 37.9895 220.311 38.134 220.599 38.4228C220.839 38.7117 221.031 39.0488 221.079 39.4821C221.031 39.5784 221.031 39.6265 221.031 39.7228V43.4302C221.031 44.4414 221.847 45.2599 222.855 45.2599C223.863 45.2599 224.679 44.4414 224.679 43.4302Z" fill="white"/>
</g>
<defs>
<clipPath id="clip0_17912_478">
<rect width="229" height="52" fill="white"/>
</clipPath>
</defs>
</svg>
