<svg width="26" height="28" viewBox="0 0 26 28" fill="none" xmlns="http://www.w3.org/2000/svg">
<g clip-path="url(#clip0_17912_2727)">
<path d="M25.0607 13.5593C24.5027 13.0667 23.8384 12.7556 23.0944 12.6778C23.0678 12.6778 22.7489 12.6778 22.3769 12.6778C21.6595 12.6778 21.0749 12.1074 21.0749 11.4074C21.0749 10.7593 21.1015 9.9037 21.1015 8.91852C21.1015 6.74074 21.0749 5.54815 21.0217 5.36667C20.8889 4.71852 20.57 4.14815 20.1183 3.65556C19.6666 3.11111 19.1085 2.77407 18.4442 2.59259C18.4177 2.59259 17.9128 2.56667 17.1688 2.56667C16.4513 2.56667 15.8667 1.9963 15.8667 1.2963V1.27037C15.8667 0.57037 15.2821 0 14.5647 0H14.4318C13.7144 0 13.1298 0.57037 13.1298 1.27037C13.1298 1.97037 12.5452 2.54074 11.8277 2.54074H11.6949C10.9774 2.54074 10.3928 1.97037 10.3928 1.27037C10.3928 0.57037 9.80823 0 9.09077 0H8.95791C8.24046 0 7.65587 0.57037 7.65587 1.27037C7.65587 1.97037 7.07128 2.54074 6.35382 2.54074C6.03496 2.54074 5.87552 2.54074 5.84895 2.54074C5.76923 2.56667 5.68952 2.56667 5.6098 2.59259H1.54423C1.43794 2.59259 1.33165 2.61852 1.19879 2.64444C0.773634 2.74815 0.481338 3.00741 0.321904 3.3963C0.26876 3.52593 0.242188 3.68148 0.242188 3.91481C0.242188 4.07037 0.26876 4.2 0.295332 4.3037C0.428193 4.69259 0.693917 4.95185 1.11907 5.08148C1.25194 5.13333 1.3848 5.15926 1.54423 5.15926H2.95257V5.18518L2.84628 5.4963V8.86667C2.84628 11.0963 2.84628 16.8519 2.84628 19.0815C2.84628 21.2593 2.87285 22.4519 2.92599 22.6333C2.92599 22.6852 2.95257 22.737 2.97914 22.7889H1.54423C1.46451 22.8148 1.33165 22.8148 1.22536 22.8407C0.800206 22.9444 0.50791 23.2037 0.348477 23.5926C0.295332 23.7222 0.26876 23.9037 0.26876 24.1111C0.26876 24.2667 0.295332 24.3963 0.321904 24.5C0.454766 24.8889 0.720489 25.1481 1.14565 25.2778C1.27851 25.3296 1.41137 25.3556 1.5708 25.3556H5.53008C5.55665 25.3556 5.87552 25.3815 6.40697 25.3815C7.09785 25.3815 7.68244 25.9519 7.68244 26.6259V26.6778C7.68244 27.3778 8.24046 27.9222 8.95791 27.9222H9.14392C9.86137 27.9222 10.4194 27.3778 10.4194 26.6778V26.6519C10.4194 25.9519 11.004 25.4074 11.6949 25.4074H11.8809C12.5717 25.4074 13.1563 25.9778 13.1563 26.6519V26.6778C13.1563 27.3778 13.7144 27.9222 14.4318 27.9222H14.6178C15.3087 27.9222 15.8933 27.3778 15.8933 26.6778C15.8933 25.9778 16.4779 25.4333 17.1688 25.4333C18.2582 25.4333 19.1351 25.4333 19.6134 25.4333C21.9518 25.4333 23.1741 25.4333 23.307 25.4074C24.2901 25.2519 25.0873 24.7593 25.6985 23.9296C25.9111 23.6185 26.0971 23.2296 26.2299 22.763L26.3362 22.4519V19.0815C26.3362 16.8519 26.3096 15.6333 26.2565 15.4259C25.9908 14.6741 25.6188 14.0519 25.0607 13.5593ZM7.54958 5.15926H17.5408L17.7534 5.23704C18.0191 5.34074 18.2317 5.54815 18.3645 5.85926L18.4708 6.06667L18.4974 8.86667C18.4974 9.41111 18.5239 10.0333 18.5239 10.7074C18.5239 11.0185 18.5239 11.2519 18.5239 11.4074C18.5239 11.563 18.4974 11.7185 18.4708 11.8222C18.4442 11.9259 18.4177 12.0037 18.3911 12.0296C18.3645 12.0556 18.3379 12.1074 18.2582 12.2111C18.0988 12.4185 17.8862 12.5741 17.6205 12.6519C17.6205 12.6519 17.5939 12.6519 17.5408 12.6519C15.1758 12.6519 11.6151 12.6519 9.0642 12.6778C7.57615 12.6778 6.46011 12.6778 6.46011 12.6778L6.24754 12.5741C5.95524 12.4185 5.74266 12.2111 5.63637 11.9259C5.58323 11.7704 5.58323 10.7333 5.58323 8.84074V6.01481L5.66294 5.83333C5.79581 5.57407 6.00838 5.36667 6.30068 5.23704L6.51326 5.15926H7.54958ZM23.5195 21.9333L23.4398 22.1148C23.307 22.3741 23.0944 22.5815 22.8021 22.7111L22.6161 22.8148H7.54958H6.40697L6.19439 22.737C5.92867 22.6333 5.71609 22.4259 5.58323 22.1148L5.47694 21.9074L5.45037 19.1074C5.45037 18.563 5.42379 17.9407 5.42379 17.2667C5.42379 16.9556 5.42379 16.7222 5.42379 16.5667C5.42379 16.4111 5.45037 16.2556 5.47694 16.1519C5.50351 16.0481 5.53008 15.9704 5.55665 15.9444C5.58323 15.9185 5.6098 15.8667 5.68952 15.763C5.84895 15.5556 6.06153 15.4 6.32725 15.3222C6.3804 15.2963 17.7268 15.2963 19.7197 15.2963H22.6692L22.8818 15.4C23.1741 15.5556 23.3867 15.763 23.493 16.0481C23.5461 16.1778 23.5727 17.1889 23.5727 19.1074L23.5195 21.9333Z" fill="white"/>
<path d="M14.0644 9.93027C14.1972 9.98212 14.3301 10.008 14.4895 10.008C14.7021 10.008 14.8881 9.98215 15.021 9.90437C15.5259 9.67104 15.7916 9.28215 15.7916 8.7377C15.7916 8.34881 15.6587 8.0377 15.393 7.80437C15.1273 7.57104 14.835 7.44141 14.4895 7.44141C14.3833 7.44141 14.277 7.46733 14.1441 7.49326C13.7189 7.59696 13.4267 7.85619 13.2672 8.24508C13.2141 8.37471 13.1875 8.53027 13.1875 8.7636C13.1875 8.91916 13.2141 9.04879 13.2406 9.15249C13.4001 9.54138 13.6658 9.80064 14.0644 9.93027Z" fill="white"/>
<path d="M8.90814 9.93027C9.041 9.98212 9.17386 10.008 9.33329 10.008C9.54587 10.008 9.73188 9.98215 9.86474 9.90437C10.3696 9.67104 10.6353 9.28215 10.6353 8.7377C10.6353 8.34881 10.5025 8.0377 10.2368 7.80437C9.97103 7.57104 9.67873 7.44141 9.33329 7.44141C9.227 7.44141 9.12072 7.46733 8.98785 7.49326C8.5627 7.59696 8.2704 7.85619 8.11097 8.24508C8.05782 8.37471 8.03125 8.53027 8.03125 8.7636C8.03125 8.91916 8.05782 9.04879 8.08439 9.15249C8.21726 9.54138 8.48298 9.80064 8.90814 9.93027Z" fill="white"/>
</g>
<defs>
<clipPath id="clip0_17912_2727">
<rect width="26" height="28" fill="white"/>
</clipPath>
</defs>
</svg>
